Loretta - Bold Display.ufo
<glyph name="numbersign" format="2">
	<advance width="626"/>
	<unicode hex="0023"/>
	<outline>
		<contour>
			<point x="346" y="0" type="line"/>
			<point x="370" y="0" type="line"/>
			<point x="510" y="692" type="line"/>
			<point x="486" y="692" type="line"/>
		</contour>
		<contour>
			<point x="20" y="220" type="line"/>
			<point x="576" y="220" type="line"/>
			<point x="576" y="242" type="line"/>
			<point x="20" y="242" type="line"/>
		</contour>
		<contour>
			<point x="116" y="0" type="line"/>
			<point x="140" y="0" type="line"/>
			<point x="280" y="692" type="line"/>
			<point x="256" y="692" type="line"/>
		</contour>
		<contour>
			<point x="50" y="450" type="line"/>
			<point x="606" y="450" type="line"/>
			<point x="606" y="472" type="line" name="❌"/>
			<point x="50" y="472" type="line" name="❌"/>
		</contour>
	</outline>
</glyph>
<glyph name="dollar" format="2">
	<advance width="587"/>
	<unicode hex="0024"/>
	<outline>
		<contour>
			<point x="296" y="-16" type="curve" smooth="yes"/>
			<point x="489" y="-16"/>
			<point x="557" y="102"/>
			<point x="557" y="205" type="curve" smooth="yes"/>
			<point x="557" y="446"/>
			<point x="185" y="390"/>
			<point x="185" y="551" type="curve" smooth="yes"/>
			<point x="185" y="604"/>
			<point x="225" y="648"/>
			<point x="302" y="648" type="curve" smooth="yes"/>
			<point x="370" y="648"/>
			<point x="468" y="614"/>
			<point x="482" y="454" type="curve"/>
			<point x="501" y="454" type="line"/>
			<point x="521" y="614" type="line"/>
			<point x="470" y="646"/>
			<point x="390" y="668"/>
			<point x="307" y="668" type="curve" smooth="yes"/>
			<point x="127" y="668"/>
			<point x="45" y="570"/>
			<point x="45" y="466" type="curve" smooth="yes"/>
			<point x="45" y="243"/>
			<point x="422" y="295"/>
			<point x="422" y="110" type="curve" smooth="yes"/>
			<point x="422" y="46"/>
			<point x="376" y="4"/>
			<point x="289" y="4" type="curve" smooth="yes"/>
			<point x="202" y="4"/>
			<point x="87" y="51"/>
			<point x="80" y="236" type="curve"/>
			<point x="60" y="236" type="line"/>
			<point x="40" y="58" type="line"/>
			<point x="70" y="40"/>
			<point x="163" y="-16"/>
		</contour>
		<contour>
			<point x="294" y="-90" type="line"/>
			<point x="316" y="-90" type="line"/>
			<point x="316" y="740" type="line"/>
			<point x="294" y="740" type="line"/>
		</contour>
	</outline>
</glyph>
<glyph name="ampersand" format="2">
	<advance width="877"/>
	<unicode hex="0026"/>
	<outline>
		<contour>
			<point x="664" y="-12" type="curve" smooth="yes"/>
			<point x="769" y="-12"/>
			<point x="833" y="34"/>
			<point x="864" y="148" type="curve"/>
			<point x="845" y="153" type="line"/>
			<point x="821" y="80"/>
			<point x="795" y="55"/>
			<point x="748" y="55" type="curve" smooth="yes"/>
			<point x="693" y="55"/>
			<point x="666" y="88"/>
			<point x="621" y="147" type="curve" smooth="yes"/>
			<point x="405" y="430" type="line" smooth="yes"/>
			<point x="338" y="518"/>
			<point x="314" y="549"/>
			<point x="314" y="596" type="curve" smooth="yes"/>
			<point x="314" y="646"/>
			<point x="342" y="684"/>
			<point x="398" y="684" type="curve" smooth="yes"/>
			<point x="459" y="684"/>
			<point x="519" y="643"/>
			<point x="551" y="499" type="curve"/>
			<point x="569" y="499" type="line"/>
			<point x="569" y="669" type="line"/>
			<point x="508" y="692"/>
			<point x="457" y="704"/>
			<point x="401" y="704" type="curve" smooth="yes"/>
			<point x="263" y="704"/>
			<point x="173" y="632"/>
			<point x="173" y="531" type="curve" smooth="yes"/>
			<point x="173" y="471"/>
			<point x="203" y="429"/>
			<point x="229" y="395" type="curve" smooth="yes"/>
			<point x="458" y="97" type="line" smooth="yes"/>
			<point x="510" y="30"/>
			<point x="562" y="-12"/>
		</contour>
		<contour>
			<point x="258" y="-12" type="curve" smooth="yes"/>
			<point x="369" y="-12"/>
			<point x="440" y="45"/>
			<point x="499" y="118" type="curve"/>
			<point x="485" y="121" type="line"/>
			<point x="462" y="99"/>
			<point x="423" y="82"/>
			<point x="368" y="82" type="curve" smooth="yes"/>
			<point x="277" y="82"/>
			<point x="239" y="128"/>
			<point x="239" y="215" type="curve" smooth="yes"/>
			<point x="239" y="272"/>
			<point x="255" y="312"/>
			<point x="292" y="354" type="curve"/>
			<point x="287" y="364" type="line"/>
			<point x="145" y="343"/>
			<point x="65" y="266"/>
			<point x="65" y="160" type="curve" smooth="yes"/>
			<point x="65" y="61"/>
			<point x="133" y="-12"/>
		</contour>
		<contour>
			<point x="551" y="170" type="line"/>
			<point x="733" y="399" type="line" name="_corner00"/>
			<point x="703" y="399" type="line" name="_corner01"/>
			<point x="530" y="171" type="line"/>
		</contour>
	</outline>
</glyph>
<glyph name="quotesingle" format="2">
	<advance width="217"/>
	<unicode hex="0027"/>
	<anchor x="34" y="0" name="#entry"/>
	<anchor x="210" y="0" name="#exit"/>
	<outline>
		<contour>
			<point x="118" y="467" type="line"/>
			<point x="162" y="558"/>
			<point x="183" y="608"/>
			<point x="183" y="654" type="curve" smooth="yes"/>
			<point x="183" y="703" name="❌"/>
			<point x="154" y="731" name="❌"/>
			<point x="109" y="731" type="curve" smooth="yes" name="❌"/>
			<point x="64" y="731" name="❌"/>
			<point x="34" y="703" name="❌"/>
			<point x="34" y="654" type="curve" smooth="yes"/>
			<point x="34" y="608"/>
			<point x="55" y="558"/>
			<point x="99" y="467" type="curve"/>
		</contour>
	</outline>
</glyph>
<glyph name="parenleft" format="2">
	<advance width="403"/>
	<unicode hex="0028"/>
	<outline>
		<contour>
			<point x="371" y="-180" type="curve"/>
			<point x="378" y="-170" type="line"/>
			<point x="276" y="-83"/>
			<point x="213" y="69"/>
			<point x="213" y="290" type="curve" smooth="yes"/>
			<point x="213" y="513"/>
			<point x="276" y="663"/>
			<point x="378" y="750" type="curve"/>
			<point x="371" y="760" type="line"/>
			<point x="165" y="680"/>
			<point x="35" y="529"/>
			<point x="35" y="290" type="curve" smooth="yes"/>
			<point x="35" y="51"/>
			<point x="165" y="-100"/>
		</contour>
	</outline>
</glyph>
<glyph name="plus" format="2">
	<advance width="600"/>
	<unicode hex="002B"/>
	<outline>
		<contour>
			<point x="276" y="72" type="line"/>
			<point x="320" y="72" type="line"/>
			<point x="320" y="474" type="line"/>
			<point x="276" y="474" type="line"/>
		</contour>
		<contour>
			<point x="99" y="253" type="line"/>
			<point x="500" y="253" type="line"/>
			<point x="500" y="293" type="line"/>
			<point x="99" y="293" type="line"/>
		</contour>
	</outline>
</glyph>
<glyph name="hyphen" format="2">
	<advance width="340"/>
	<unicode hex="002D"/>
	<outline>
		<contour>
			<point x="40" y="216" type="line"/>
			<point x="300" y="216" type="line"/>
			<point x="300" y="268" type="line"/>
			<point x="40" y="268" type="line"/>
		</contour>
	</outline>
</glyph>
<glyph name="period" format="2">
	<advance width="316"/>
	<unicode hex="002E"/>
	<outline>
		<contour>
			<point x="159" y="-12" type="curve" smooth="yes"/>
			<point x="205" y="-12"/>
			<point x="246" y="22"/>
			<point x="246" y="77" type="curve" smooth="yes"/>
			<point x="246" y="131"/>
			<point x="205" y="164"/>
			<point x="159" y="164" type="curve" smooth="yes"/>
			<point x="112" y="164"/>
			<point x="70" y="131"/>
			<point x="70" y="77" type="curve" smooth="yes"/>
			<point x="70" y="22"/>
			<point x="112" y="-12"/>
		</contour>
	</outline>
</glyph>
<glyph name="one" format="2">
	<advance width="444"/>
	<unicode hex="0031"/>
	<outline>
		<contour>
			<point x="157" y="0" type="line" name="_corner01"/>
			<point x="324" y="0" type="line" name="_corner00"/>
			<point x="324" y="511" type="line"/>
			<point x="308" y="511" type="line"/>
			<point x="30" y="411" type="line"/>
			<point x="35" y="393" type="line"/>
			<point x="66" y="400"/>
			<point x="91" y="405"/>
			<point x="108" y="405" type="curve" smooth="yes"/>
			<point x="138" y="405"/>
			<point x="157" y="396"/>
			<point x="157" y="356" type="curve" smooth="yes"/>
		</contour>
	</outline>
</glyph>
<glyph name="four" format="2">
	<advance width="660"/>
	<unicode hex="0034"/>
	<outline>
		<contour>
			<point x="347" y="-208" type="line" name="_corner00"/>
			<point x="514" y="-208" type="line" name="_corner01"/>
			<point x="514" y="490" type="line"/>
			<point x="403" y="490" type="line"/>
			<point x="28" y="37" type="line"/>
			<point x="61" y="-20" type="line"/>
			<point x="630" y="-20" type="line"/>
			<point x="630" y="60" type="line"/>
			<point x="58" y="60" type="line"/>
			<point x="58" y="42" type="line"/>
			<point x="345" y="390" type="line"/>
			<point x="347" y="390" type="line"/>
		</contour>
	</outline>
</glyph>
<glyph name="five" format="2">
	<advance width="556"/>
	<unicode hex="0035"/>
	<outline>
		<contour>
			<point x="69" y="-220" type="line"/>
			<point x="275" y="-200"/>
			<point x="508" y="-118"/>
			<point x="508" y="81" type="curve" smooth="yes"/>
			<point x="508" y="198"/>
			<point x="427" y="267"/>
			<point x="305" y="267" type="curve" smooth="yes"/>
			<point x="182" y="267"/>
			<point x="116" y="198"/>
			<point x="74" y="113" type="curve"/>
			<point x="84" y="115" type="line"/>
			<point x="114" y="447" type="line"/>
			<point x="98" y="380" type="line"/>
			<point x="451" y="380" type="line"/>
			<point x="471" y="576" type="line"/>
			<point x="453" y="576" type="line"/>
			<point x="433" y="503"/>
			<point x="406" y="490"/>
			<point x="346" y="490" type="curve" smooth="yes"/>
			<point x="99" y="490" type="line"/>
			<point x="66" y="114" type="line"/>
			<point x="84" y="107" type="line"/>
			<point x="113" y="156"/>
			<point x="150" y="190"/>
			<point x="217" y="190" type="curve" smooth="yes"/>
			<point x="292" y="190"/>
			<point x="338" y="147"/>
			<point x="338" y="44" type="curve" smooth="yes"/>
			<point x="338" y="-110"/>
			<point x="236" y="-178"/>
			<point x="67" y="-202" type="curve"/>
		</contour>
	</outline>
</glyph>
<glyph name="seven" format="2">
	<advance width="529"/>
	<unicode hex="0037"/>
	<outline>
		<contour>
			<point x="61" y="-208" type="line"/>
			<point x="231" y="-208" type="line"/>
			<point x="520" y="472" type="line"/>
			<point x="508" y="490" type="line"/>
			<point x="52" y="490" type="line"/>
			<point x="41" y="249" type="line"/>
			<point x="59" y="249" type="line"/>
			<point x="86" y="372"/>
			<point x="113" y="380"/>
			<point x="199" y="380" type="curve" smooth="yes"/>
			<point x="471" y="380" type="line"/>
			<point x="506" y="456" type="line"/>
		</contour>
	</outline>
</glyph>
<glyph name="eight" format="2">
	<advance width="561"/>
	<unicode hex="0038"/>
	<outline>
		<contour>
			<point x="265" y="-12" type="curve" smooth="yes"/>
			<point x="422" y="-12"/>
			<point x="531" y="69"/>
			<point x="531" y="193" type="curve" smooth="yes"/>
			<point x="531" y="412"/>
			<point x="190" y="410"/>
			<point x="190" y="593" type="curve" smooth="yes"/>
			<point x="190" y="641"/>
			<point x="213" y="680"/>
			<point x="274" y="680" type="curve" smooth="yes"/>
			<point x="322" y="680"/>
			<point x="365" y="655"/>
			<point x="365" y="562" type="curve" smooth="yes"/>
			<point x="365" y="507"/>
			<point x="350" y="447"/>
			<point x="315" y="420" type="curve"/>
			<point x="317" y="412" type="line"/>
			<point x="474" y="444"/>
			<point x="496" y="523"/>
			<point x="496" y="565" type="curve" smooth="yes"/>
			<point x="496" y="655"/>
			<point x="394" y="698" name="❌"/>
			<point x="287" y="698" type="curve" smooth="yes" name="❌"/>
			<point x="145" y="698" name="❌"/>
			<point x="51" y="622"/>
			<point x="51" y="516" type="curve" smooth="yes"/>
			<point x="51" y="314"/>
			<point x="396" y="301"/>
			<point x="396" y="111" type="curve" smooth="yes"/>
			<point x="396" y="51"/>
			<point x="361" y="7"/>
			<point x="288" y="7" type="curve" smooth="yes"/>
			<point x="233" y="7"/>
			<point x="170" y="32"/>
			<point x="170" y="154" type="curve" smooth="yes"/>
			<point x="170" y="216"/>
			<point x="186" y="286"/>
			<point x="231" y="325" type="curve"/>
			<point x="230" y="338" type="line"/>
			<point x="100" y="308"/>
			<point x="30" y="234"/>
			<point x="30" y="148" type="curve" smooth="yes"/>
			<point x="30" y="40"/>
			<point x="140" y="-12"/>
		</contour>
	</outline>
</glyph>
<glyph name="equal" format="2">
	<advance width="600"/>
	<unicode hex="003D"/>
	<outline>
		<contour>
			<point x="99" y="333" type="line"/>
			<point x="500" y="333" type="line"/>
			<point x="500" y="373" type="line"/>
			<point x="99" y="373" type="line"/>
		</contour>
		<contour>
			<point x="99" y="183" type="line"/>
			<point x="500" y="183" type="line"/>
			<point x="500" y="223" type="line"/>
			<point x="99" y="223" type="line"/>
		</contour>
	</outline>
</glyph>
<glyph name="at" format="2">
	<advance width="893"/>
	<unicode hex="0040"/>
	<outline>
		<contour>
			<point x="445" y="-128" type="curve" smooth="yes"/>
			<point x="584" y="-128"/>
			<point x="692" y="-81"/>
			<point x="762" y="-18" type="curve"/>
			<point x="751" y="-3" type="line"/>
			<point x="670" y="-74"/>
			<point x="574" y="-108"/>
			<point x="455" y="-108" type="curve" smooth="yes"/>
			<point x="222" y="-108"/>
			<point x="79" y="22"/>
			<point x="79" y="243" type="curve" smooth="yes"/>
			<point x="79" y="447"/>
			<point x="202" y="603"/>
			<point x="469" y="603" type="curve" smooth="yes"/>
			<point x="658" y="603"/>
			<point x="814" y="524"/>
			<point x="814" y="304" type="curve" smooth="yes"/>
			<point x="814" y="180"/>
			<point x="764" y="107"/>
			<point x="695" y="107" type="curve" smooth="yes"/>
			<point x="658" y="107"/>
			<point x="645" y="127"/>
			<point x="645" y="172" type="curve" smooth="yes"/>
			<point x="645" y="429" type="line"/>
			<point x="498" y="429" type="line"/>
			<point x="498" y="204" type="line" smooth="yes"/>
			<point x="498" y="127"/>
			<point x="554" y="79"/>
			<point x="649" y="79" type="curve" smooth="yes"/>
			<point x="775" y="79"/>
			<point x="837" y="165"/>
			<point x="837" y="305" type="curve" smooth="yes"/>
			<point x="837" y="525"/>
			<point x="679" y="623"/>
			<point x="471" y="623" type="curve" smooth="yes"/>
			<point x="214" y="623"/>
			<point x="56" y="473"/>
			<point x="56" y="243" type="curve" smooth="yes"/>
			<point x="56" y="34"/>
			<point x="187" y="-128"/>
		</contour>
		<contour>
			<point x="391" y="80" type="curve" smooth="yes"/>
			<point x="468" y="80"/>
			<point x="500" y="118"/>
			<point x="511" y="227" type="curve"/>
			<point x="499" y="236" type="line"/>
			<point x="495" y="163"/>
			<point x="474" y="107"/>
			<point x="438" y="107" type="curve" smooth="yes"/>
			<point x="405" y="107"/>
			<point x="391" y="153"/>
			<point x="391" y="245" type="curve" smooth="yes"/>
			<point x="391" y="370"/>
			<point x="417" y="401"/>
			<point x="454" y="401" type="curve" smooth="yes"/>
			<point x="481" y="401"/>
			<point x="499" y="384"/>
			<point x="518" y="360" type="curve"/>
			<point x="527" y="368" type="line"/>
			<point x="493" y="407"/>
			<point x="458" y="432"/>
			<point x="402" y="432" type="curve" smooth="yes"/>
			<point x="314" y="432"/>
			<point x="244" y="372"/>
			<point x="244" y="247" type="curve" smooth="yes"/>
			<point x="244" y="134"/>
			<point x="302" y="80"/>
		</contour>
	</outline>
</glyph>
<glyph name="A" format="2">
	<advance width="714"/>
	<unicode hex="0041"/>
	<anchor x="323" y="0" name="bottom"/>
	<anchor x="641" y="10" name="ogonek"/>
	<anchor x="353" y="692" name="top"/>
	<outline>
		<contour>
			<point x="62" y="0" type="line" name="_corner00"/>
			<point x="90" y="0" type="line" name="_corner01"/>
			<point x="275" y="557" type="line"/>
			<point x="281" y="557" type="line"/>
			<point x="459" y="0" type="line" name="_corner02"/>
			<point x="651" y="0" type="line" name="_corner03"/>
			<point x="396" y="711" type="line"/>
			<point x="351" y="710"/>
			<point x="322" y="698"/>
			<point x="294" y="680" type="curve"/>
		</contour>
		<contour>
			<point x="169" y="264" type="line"/>
			<point x="437" y="264" type="line"/>
			<point x="437" y="284" type="line"/>
			<point x="169" y="284" type="line"/>
		</contour>
	</outline>
</glyph>
<glyph name="B" format="2">
	<advance width="722"/>
	<unicode hex="0042"/>
	<anchor x="340" y="0" name="bottom"/>
	<anchor x="340" y="692" name="top"/>
	<outline>
		<contour>
			<point x="226" y="0" type="line" name="🧨"/>
			<point x="434" y="0" type="line" smooth="yes"/>
			<point x="609" y="0"/>
			<point x="682" y="91"/>
			<point x="682" y="193" type="curve" smooth="yes"/>
			<point x="682" y="316"/>
			<point x="576" y="368"/>
			<point x="424" y="368" type="curve"/>
			<point x="434" y="362" type="line"/>
			<point x="568" y="364"/>
			<point x="659" y="416"/>
			<point x="659" y="530" type="curve" smooth="yes"/>
			<point x="659" y="630"/>
			<point x="590" y="692"/>
			<point x="430" y="692" type="curve" smooth="yes"/>
			<point x="226" y="692" type="line" name="🧨"/>
			<point x="226" y="672" type="line"/>
			<point x="344" y="672" type="line" smooth="yes"/>
			<point x="430" y="672"/>
			<point x="471" y="633"/>
			<point x="471" y="522" type="curve" smooth="yes"/>
			<point x="471" y="408"/>
			<point x="428" y="376"/>
			<point x="363" y="376" type="curve" smooth="yes"/>
			<point x="214" y="376" type="line"/>
			<point x="214" y="348" type="line"/>
			<point x="373" y="348" type="line" smooth="yes"/>
			<point x="451" y="348"/>
			<point x="495" y="313"/>
			<point x="495" y="191" type="curve" smooth="yes"/>
			<point x="495" y="63"/>
			<point x="447" y="20"/>
			<point x="367" y="20" type="curve" smooth="yes"/>
			<point x="226" y="20" type="line"/>
		</contour>
		<contour>
			<point x="120" y="0" type="line" name="_corner01"/>
			<point x="293" y="0" type="line" name="🧨"/>
			<point x="293" y="692" type="line" name="🧨"/>
			<point x="120" y="692" type="line" name="_corner00"/>
		</contour>
	</outline>
</glyph>
<glyph name="H" format="2">
	<advance width="857"/>
	<unicode hex="0048"/>
	<anchor x="429" y="0" name="bottom"/>
	<anchor x="429" y="350" name="center"/>
	<anchor x="429" y="692" name="top"/>
	<anchor x="20" y="692" name="topleft"/>
	<outline>
		<contour>
			<point x="564" y="0" type="line" name="_corner07"/>
			<point x="737" y="0" type="line" name="_corner04"/>
			<point x="737" y="692" type="line" name="_corner05"/>
			<point x="564" y="692" type="line" name="_corner06"/>
		</contour>
		<contour>
			<point x="120" y="0" type="line" name="_corner00"/>
			<point x="293" y="0" type="line" name="_corner01"/>
			<point x="293" y="692" type="line" name="_corner02"/>
			<point x="120" y="692" type="line" name="_corner03"/>
		</contour>
		<contour>
			<point x="233" y="340" type="line"/>
			<point x="624" y="340" type="line"/>
			<point x="624" y="362" type="line"/>
			<point x="233" y="362" type="line"/>
		</contour>
	</outline>
</glyph>
<glyph name="I" format="2">
	<advance width="413"/>
	<unicode hex="0049"/>
	<anchor x="207" y="0" name="bottom"/>
	<anchor x="322" y="10" name="ogonek"/>
	<anchor x="207" y="692" name="top"/>
	<anchor x="20" y="692" name="topleft"/>
	<outline>
		<contour>
			<point x="120" y="0" type="line" name="_corner03"/>
			<point x="293" y="0" type="line" name="_corner00"/>
			<point x="293" y="692" type="line" name="_corner01"/>
			<point x="120" y="692" type="line" name="_corner02"/>
		</contour>
	</outline>
</glyph>
<glyph name="L" format="2">
	<advance width="652"/>
	<unicode hex="004C"/>
	<anchor x="326" y="0" name="bottom"/>
	<anchor x="186" y="344" name="center"/>
	<anchor x="527" y="364" name="dot"/>
	<anchor x="207" y="692" name="top"/>
	<anchor x="372" y="692" name="topright"/>
	<outline>
		<contour>
			<point x="120" y="0" type="line" name="_corner00"/>
			<point x="293" y="0" type="line" name="🧨"/>
			<point x="293" y="692" type="line" name="_corner02"/>
			<point x="120" y="692" type="line" name="_corner01"/>
		</contour>
		<contour>
			<point x="212" y="0" type="line" name="🧨"/>
			<point x="610" y="0" type="line"/>
			<point x="641" y="243" type="line"/>
			<point x="621" y="243" type="line"/>
			<point x="588" y="55"/>
			<point x="520" y="20"/>
			<point x="434" y="20" type="curve" smooth="yes"/>
			<point x="212" y="20" type="line"/>
		</contour>
	</outline>
</glyph>
<glyph name="M" format="2">
	<advance width="983"/>
	<unicode hex="004D"/>
	<anchor x="492" y="0" name="bottom"/>
	<anchor x="492" y="692" name="top"/>
	<outline>
		<contour>
			<point x="390" y="-21" type="line"/>
			<point x="455" y="6" type="line"/>
			<point x="660" y="676" type="line"/>
			<point x="644" y="666" type="line"/>
			<point x="689" y="76" type="line" smooth="yes"/>
			<point x="691" y="47"/>
			<point x="686" y="19"/>
			<point x="613" y="19" type="curve"/>
			<point x="613" y="0" type="line"/>
			<point x="939" y="0" type="line"/>
			<point x="939" y="20" type="line"/>
			<point x="879" y="20"/>
			<point x="867" y="33"/>
			<point x="864" y="67" type="curve" smooth="yes"/>
			<point x="819" y="588" type="line" smooth="yes"/>
			<point x="815" y="639"/>
			<point x="827" y="673"/>
			<point x="892" y="673" type="curve"/>
			<point x="892" y="692" type="line"/>
			<point x="634" y="692" type="line"/>
			<point x="476" y="183" type="line"/>
			<point x="490" y="183" type="line"/>
			<point x="321" y="692" type="line"/>
			<point x="60" y="692" type="line"/>
			<point x="60" y="673" type="line"/>
			<point x="111" y="671"/>
			<point x="144" y="655"/>
			<point x="140" y="598" type="curve" smooth="yes"/>
			<point x="105" y="77" type="line" smooth="yes"/>
			<point x="103" y="48"/>
			<point x="90" y="20"/>
			<point x="29" y="20" type="curve"/>
			<point x="29" y="0" type="line"/>
			<point x="210" y="0" type="line"/>
			<point x="210" y="20" type="line"/>
			<point x="152" y="20"/>
			<point x="133" y="29"/>
			<point x="135" y="67" type="curve" smooth="yes"/>
			<point x="169" y="654" type="line"/>
			<point x="156" y="666" type="line"/>
		</contour>
	</outline>
</glyph>
<glyph name="P" format="2">
	<advance width="670"/>
	<unicode hex="0050"/>
	<anchor x="350" y="0" name="bottom"/>
	<anchor x="350" y="692" name="top"/>
	<outline>
		<contour>
			<point x="120" y="0" type="line" name="_corner01"/>
			<point x="293" y="0" type="line" name="_corner02"/>
			<point x="293" y="692" type="line"/>
			<point x="120" y="692" type="line" name="_corner00"/>
		</contour>
		<contour>
			<point x="261" y="293" type="line"/>
			<point x="386" y="293" type="line" smooth="yes"/>
			<point x="585" y="293"/>
			<point x="655" y="394"/>
			<point x="655" y="490" type="curve" smooth="yes"/>
			<point x="655" y="576"/>
			<point x="599" y="692"/>
			<point x="401" y="692" type="curve" smooth="yes"/>
			<point x="263" y="692" type="line" name="🔥"/>
			<point x="263" y="672" type="line" name="🧨"/>
			<point x="338" y="672" type="line" smooth="yes"/>
			<point x="423" y="672"/>
			<point x="479" y="629"/>
			<point x="479" y="488" type="curve" smooth="yes"/>
			<point x="479" y="361"/>
			<point x="433" y="313"/>
			<point x="338" y="313" type="curve" smooth="yes"/>
			<point x="261" y="313" type="line"/>
		</contour>
	</outline>
</glyph>
<glyph name="S" format="2">
	<advance width="587"/>
	<unicode hex="0053"/>
	<anchor x="296" y="0" name="bottom"/>
	<anchor x="306" y="692" name="top"/>
	<outline>
		<contour>
			<point x="294" y="-16" type="curve" smooth="yes"/>
			<point x="489" y="-16"/>
			<point x="557" y="110"/>
			<point x="557" y="217" type="curve" smooth="yes"/>
			<point x="557" y="468"/>
			<point x="185" y="411"/>
			<point x="185" y="582" type="curve" smooth="yes"/>
			<point x="185" y="636"/>
			<point x="222" y="688"/>
			<point x="305" y="688" type="curve" smooth="yes"/>
			<point x="370" y="688"/>
			<point x="468" y="654"/>
			<point x="482" y="494" type="curve"/>
			<point x="501" y="494" type="line"/>
			<point x="521" y="654" type="line"/>
			<point x="470" y="686"/>
			<point x="390" y="708"/>
			<point x="307" y="708" type="curve" smooth="yes"/>
			<point x="127" y="708"/>
			<point x="45" y="605"/>
			<point x="45" y="495" type="curve" smooth="yes"/>
			<point x="45" y="260"/>
			<point x="422" y="316"/>
			<point x="422" y="119" type="curve" smooth="yes"/>
			<point x="422" y="50"/>
			<point x="376" y="4"/>
			<point x="289" y="4" type="curve" smooth="yes"/>
			<point x="202" y="4"/>
			<point x="87" y="51"/>
			<point x="80" y="236" type="curve"/>
			<point x="60" y="236" type="line"/>
			<point x="40" y="58" type="line"/>
			<point x="68" y="41"/>
			<point x="163" y="-16"/>
		</contour>
	</outline>
</glyph>
<glyph name="T" format="2">
	<advance width="677"/>
	<unicode hex="0054"/>
	<anchor x="339" y="5" name="bottom"/>
	<anchor x="357" y="350" name="center"/>
	<anchor x="341" y="692" name="top"/>
	<outline>
		<contour>
			<point x="252" y="0" type="line" name="_corner00"/>
			<point x="425" y="0" type="line" name="_corner01"/>
			<point x="425" y="680" type="line"/>
			<point x="252" y="680" type="line"/>
		</contour>
		<contour>
			<point x="20" y="495" type="line"/>
			<point x="39" y="495" type="line"/>
			<point x="76" y="639"/>
			<point x="89" y="670"/>
			<point x="132" y="670" type="curve" smooth="yes"/>
			<point x="545" y="670" type="line" smooth="yes"/>
			<point x="588" y="670"/>
			<point x="601" y="639"/>
			<point x="638" y="495" type="curve"/>
			<point x="657" y="495" type="line"/>
			<point x="646" y="712" type="line"/>
			<point x="602" y="712" type="line"/>
			<point x="582" y="695"/>
			<point x="575" y="692"/>
			<point x="555" y="692" type="curve" smooth="yes"/>
			<point x="122" y="692" type="line" smooth="yes"/>
			<point x="103" y="692"/>
			<point x="94" y="696"/>
			<point x="75" y="712" type="curve"/>
			<point x="31" y="712" type="line"/>
		</contour>
	</outline>
</glyph>
<glyph name="U" format="2">
	<advance width="767"/>
	<unicode hex="0055"/>
	<anchor x="405" y="0" name="bottom"/>
	<anchor x="524" y="10" name="ogonek"/>
	<anchor x="426" y="692" name="top"/>
	<anchor x="657" y="692" name="topright"/>
	<outline>
		<contour>
			<point x="380" y="-20" type="curve" smooth="yes"/>
			<point x="544" y="-20"/>
			<point x="640" y="75"/>
			<point x="640" y="259" type="curve" smooth="yes"/>
			<point x="640" y="692" type="line" name="_corner03"/>
			<point x="613" y="692" type="line" name="_corner02"/>
			<point x="613" y="266" type="line" smooth="yes"/>
			<point x="613" y="140"/>
			<point x="565" y="18"/>
			<point x="433" y="18" type="curve" smooth="yes"/>
			<point x="306" y="18"/>
			<point x="278" y="131"/>
			<point x="278" y="261" type="curve" smooth="yes"/>
			<point x="278" y="692" type="line" name="_corner01"/>
			<point x="105" y="692" type="line" name="_corner00"/>
			<point x="105" y="243" type="line" smooth="yes"/>
			<point x="105" y="58"/>
			<point x="233" y="-20"/>
		</contour>
	</outline>
</glyph>
<glyph name="W" format="2">
	<advance width="1095"/>
	<unicode hex="0057"/>
	<anchor x="534" y="0" name="bottom"/>
	<anchor x="610" y="692" name="top"/>
	<outline>
		<contour>
			<point x="295" y="-13" type="line"/>
			<point x="335" y="-13"/>
			<point x="369" y="-4" name="❌"/>
			<point x="399" y="16" type="curve"/>
			<point x="552" y="508" type="line"/>
			<point x="715" y="-13" type="line"/>
			<point x="755" y="-13"/>
			<point x="789" y="-4" name="❌"/>
			<point x="819" y="16" type="curve"/>
			<point x="1022" y="692" type="line" name="_corner03"/>
			<point x="992" y="692" type="line" name="_corner02"/>
			<point x="839" y="168" type="line"/>
			<point x="833" y="168" type="line"/>
			<point x="673" y="694" type="line"/>
			<point x="637" y="692"/>
			<point x="602" y="684"/>
			<point x="576" y="669" type="curve"/>
			<point x="419" y="168" type="line"/>
			<point x="413" y="168" type="line"/>
			<point x="258" y="692" type="line" name="_corner01"/>
			<point x="73" y="692" type="line" name="_corner00"/>
		</contour>
	</outline>
</glyph>
<glyph name="asciicircum" format="2">
	<advance width="600"/>
	<unicode hex="005E"/>
	<outline>
		<contour>
			<point x="100" y="244" type="line"/>
			<point x="144" y="244" type="line"/>
			<point x="305" y="616" type="line"/>
			<point x="295" y="616" type="line"/>
			<point x="456" y="244" type="line"/>
			<point x="500" y="244" type="line"/>
			<point x="320" y="645" type="line"/>
			<point x="280" y="645" type="line"/>
		</contour>
	</outline>
</glyph>
<glyph name="a" format="2">
	<advance width="547"/>
	<unicode hex="0061"/>
	<anchor x="271" y="0" name="bottom"/>
	<anchor x="396" y="5" name="ogonek"/>
	<anchor x="271" y="490" name="top"/>
	<outline>
		<contour>
			<point x="328" y="265" type="curve"/>
			<point x="328" y="281" type="line"/>
			<point x="153" y="252"/>
			<point x="28" y="206"/>
			<point x="28" y="97" type="curve" smooth="yes"/>
			<point x="28" y="28"/>
			<point x="87" y="-16"/>
			<point x="156" y="-16" type="curve" smooth="yes"/>
			<point x="231" y="-16"/>
			<point x="273" y="32"/>
			<point x="305" y="100" type="curve"/>
			<point x="307" y="100" type="line"/>
			<point x="334" y="-16" type="line"/>
			<point x="532" y="38" type="line"/>
			<point x="532" y="53" type="line"/>
			<point x="488" y="49"/>
			<point x="470" y="61"/>
			<point x="470" y="135" type="curve" smooth="yes"/>
			<point x="470" y="297" type="line" smooth="yes"/>
			<point x="470" y="455"/>
			<point x="378" y="510"/>
			<point x="274" y="510" type="curve" smooth="yes"/>
			<point x="171" y="510"/>
			<point x="70" y="451"/>
			<point x="46" y="323" type="curve"/>
			<point x="58" y="320" type="line"/>
			<point x="84" y="399"/>
			<point x="133" y="418"/>
			<point x="186" y="418" type="curve" smooth="yes"/>
			<point x="261" y="418"/>
			<point x="303" y="377"/>
			<point x="303" y="299" type="curve" smooth="yes"/>
			<point x="303" y="126" type="line"/>
			<point x="292" y="108"/>
			<point x="267" y="100"/>
			<point x="246" y="100" type="curve" smooth="yes"/>
			<point x="204" y="100"/>
			<point x="186" y="130"/>
			<point x="186" y="161" type="curve" smooth="yes"/>
			<point x="186" y="205"/>
			<point x="216" y="239"/>
		</contour>
	</outline>
</glyph>
<glyph name="b" format="2">
	<advance width="624"/>
	<unicode hex="0062"/>
	<anchor x="315" y="0" name="bottom"/>
	<anchor x="315" y="730" name="top"/>
	<outline>
		<contour>
			<point x="313" y="-16" type="curve" smooth="yes"/>
			<point x="468" y="-16"/>
			<point x="584" y="78"/>
			<point x="584" y="263" type="curve" smooth="yes"/>
			<point x="584" y="409"/>
			<point x="511" y="510"/>
			<point x="394" y="510" type="curve" smooth="yes"/>
			<point x="318" y="510"/>
			<point x="262" y="465"/>
			<point x="233" y="415" type="curve"/>
			<point x="237" y="418" type="line"/>
			<point x="237" y="730" type="line"/>
			<point x="221" y="730" type="line"/>
			<point x="0" y="645" type="line"/>
			<point x="0" y="629" type="line"/>
			<point x="58" y="636"/>
			<point x="70" y="623"/>
			<point x="70" y="530" type="curve" smooth="yes"/>
			<point x="70" y="64" type="line"/>
			<point x="114" y="28"/>
			<point x="213" y="-16"/>
		</contour>
		<contour>
			<point x="313" y="1" type="curve" smooth="yes"/>
			<point x="270" y="1"/>
			<point x="249" y="24"/>
			<point x="237" y="57" type="curve"/>
			<point x="237" y="394" type="line"/>
			<point x="250" y="418"/>
			<point x="279" y="439"/>
			<point x="314" y="439" type="curve" smooth="yes"/>
			<point x="374" y="439"/>
			<point x="411" y="376"/>
			<point x="411" y="228" type="curve" smooth="yes"/>
			<point x="411" y="64"/>
			<point x="384" y="0"/>
		</contour>
	</outline>
</glyph>
<glyph name="d" format="2">
	<advance width="631"/>
	<unicode hex="0064"/>
	<anchor x="314" y="0" name="bottom"/>
	<anchor x="461" y="565" name="center"/>
	<anchor x="314" y="730" name="top"/>
	<anchor x="555" y="730" name="topright"/>
	<outline>
		<contour>
			<point x="235" y="-16" type="curve" smooth="yes"/>
			<point x="315" y="-14"/>
			<point x="366" y="33"/>
			<point x="405" y="100" type="curve"/>
			<point x="393" y="91" type="line"/>
			<point x="418" y="-16" type="line"/>
			<point x="616" y="38" type="line"/>
			<point x="616" y="53" type="line"/>
			<point x="569" y="45"/>
			<point x="554" y="73"/>
			<point x="554" y="121" type="curve" smooth="yes"/>
			<point x="554" y="730" type="line"/>
			<point x="538" y="730" type="line"/>
			<point x="317" y="645" type="line"/>
			<point x="317" y="629" type="line"/>
			<point x="375" y="636"/>
			<point x="387" y="623"/>
			<point x="387" y="530" type="curve" smooth="yes"/>
			<point x="387" y="484" type="line"/>
			<point x="361" y="501"/>
			<point x="331" y="510"/>
			<point x="297" y="510" type="curve" smooth="yes"/>
			<point x="145" y="510"/>
			<point x="40" y="401"/>
			<point x="40" y="234" type="curve" smooth="yes"/>
			<point x="40" y="83"/>
			<point x="116" y="-19"/>
		</contour>
		<contour>
			<point x="307" y="55" type="curve" smooth="yes"/>
			<point x="241" y="55"/>
			<point x="213" y="133"/>
			<point x="213" y="277" type="curve" smooth="yes"/>
			<point x="213" y="426"/>
			<point x="243" y="494"/>
			<point x="311" y="494" type="curve" smooth="yes"/>
			<point x="357" y="494"/>
			<point x="377" y="463"/>
			<point x="387" y="435" type="curve"/>
			<point x="387" y="100" type="line"/>
			<point x="371" y="76"/>
			<point x="342" y="55"/>
		</contour>
	</outline>
</glyph>
<glyph name="g" format="2">
	<advance width="523"/>
	<unicode hex="0067"/>
	<anchor x="268" y="-208" name="bottom"/>
	<anchor x="246" y="490" name="top"/>
	<anchor x="212" y="490" name="top_1"/>
	<outline>
		<contour>
			<point x="243" y="-220" type="curve" smooth="yes"/>
			<point x="397" y="-220"/>
			<point x="498" y="-143"/>
			<point x="498" y="-43" type="curve" smooth="yes"/>
			<point x="498" y="36"/>
			<point x="436" y="91"/>
			<point x="286" y="120" type="curve" smooth="yes"/>
			<point x="131" y="150"/>
			<point x="114" y="162"/>
			<point x="114" y="179" type="curve" smooth="yes"/>
			<point x="114" y="192"/>
			<point x="121" y="203"/>
			<point x="164" y="222" type="curve"/>
			<point x="164" y="238" type="line"/>
			<point x="119" y="225"/>
			<point x="40" y="184"/>
			<point x="40" y="108" type="curve" smooth="yes"/>
			<point x="40" y="25"/>
			<point x="131" y="-1" name="❌"/>
			<point x="234" y="-28" type="curve" smooth="yes"/>
			<point x="341" y="-56"/>
			<point x="375" y="-65"/>
			<point x="375" y="-116" type="curve" smooth="yes"/>
			<point x="375" y="-164"/>
			<point x="344" y="-200"/>
			<point x="261" y="-200" type="curve" smooth="yes"/>
			<point x="172" y="-200"/>
			<point x="103" y="-159"/>
			<point x="103" y="-83" type="curve" smooth="yes"/>
			<point x="103" y="-21"/>
			<point x="147" y="1"/>
			<point x="162" y="9" type="curve"/>
			<point x="160" y="14" type="line"/>
			<point x="91" y="3"/>
			<point x="20" y="-32"/>
			<point x="20" y="-94" type="curve" smooth="yes"/>
			<point x="20" y="-165"/>
			<point x="113" y="-220"/>
		</contour>
		<contour>
			<point x="260" y="187" type="curve" smooth="yes"/>
			<point x="392" y="187"/>
			<point x="467" y="254"/>
			<point x="467" y="349" type="curve" smooth="yes"/>
			<point x="467" y="451"/>
			<point x="377" y="510"/>
			<point x="255" y="510" type="curve" smooth="yes"/>
			<point x="132" y="510"/>
			<point x="48" y="451"/>
			<point x="48" y="352" type="curve" smooth="yes"/>
			<point x="48" y="255"/>
			<point x="128" y="187"/>
		</contour>
		<contour>
			<point x="261" y="205" type="curve" smooth="yes"/>
			<point x="224" y="205"/>
			<point x="198" y="244"/>
			<point x="198" y="350" type="curve" smooth="yes"/>
			<point x="198" y="475"/>
			<point x="234" y="492"/>
			<point x="259" y="492" type="curve" smooth="yes"/>
			<point x="291" y="492"/>
			<point x="315" y="466"/>
			<point x="315" y="350" type="curve" smooth="yes"/>
			<point x="315" y="221"/>
			<point x="285" y="205"/>
		</contour>
		<contour>
			<point x="369" y="456" type="line"/>
			<point x="420" y="468"/>
			<point x="479" y="510"/>
			<point x="479" y="573" type="curve" smooth="yes"/>
			<point x="479" y="598"/>
			<point x="471" y="617"/>
			<point x="460" y="628" type="curve"/>
			<point x="340" y="628" type="line"/>
			<point x="340" y="612" type="line"/>
			<point x="387" y="602"/>
			<point x="402" y="572"/>
			<point x="402" y="540" type="curve" smooth="yes"/>
			<point x="402" y="499"/>
			<point x="388" y="480" name="❌"/>
			<point x="364" y="464" type="curve"/>
		</contour>
	</outline>
</glyph>
<glyph name="k" format="2">
	<advance width="626"/>
	<unicode hex="006B"/>
	<guideline x="11" y="555" angle="90"/>
	<anchor x="322" y="0" name="bottom"/>
	<anchor x="322" y="730" name="top"/>
	<outline>
		<contour>
			<point x="81" y="0" type="line" name="_corner00"/>
			<point x="248" y="0" type="line" name="_corner01"/>
			<point x="248" y="730" type="line"/>
			<point x="232" y="730" type="line"/>
			<point x="11" y="645" type="line"/>
			<point x="11" y="629" type="line"/>
			<point x="69" y="636"/>
			<point x="81" y="623"/>
			<point x="81" y="530" type="curve" smooth="yes"/>
		</contour>
		<contour>
			<point x="409" y="0" type="line"/>
			<point x="616" y="0" type="line"/>
			<point x="616" y="18" type="line"/>
			<point x="576" y="22"/>
			<point x="554" y="74"/>
			<point x="493" y="171" type="curve" smooth="yes"/>
			<point x="377" y="356" type="line"/>
			<point x="259" y="251" type="line"/>
		</contour>
		<contour>
			<point x="199" y="184" type="line"/>
			<point x="415" y="385" type="line" smooth="yes"/>
			<point x="482" y="448"/>
			<point x="525" y="472"/>
			<point x="579" y="472" type="curve"/>
			<point x="579" y="490" type="line"/>
			<point x="339" y="490" type="line"/>
			<point x="339" y="472" type="line"/>
			<point x="386" y="472"/>
			<point x="420" y="438"/>
			<point x="356" y="374" type="curve" smooth="yes"/>
			<point x="223" y="239" type="line"/>
		</contour>
	</outline>
</glyph>
<glyph name="l" format="2">
	<advance width="330"/>
	<unicode hex="006C"/>
	<anchor x="164" y="0" name="bottom"/>
	<anchor x="174" y="365" name="center"/>
	<anchor x="126" y="680" name="top"/>
	<anchor x="257" y="721" name="topright"/>
	<outline>
		<contour>
			<point x="81" y="0" type="line" name="_corner00"/>
			<point x="248" y="0" type="line" name="_corner01"/>
			<point x="248" y="730" type="line"/>
			<point x="232" y="730" type="line"/>
			<point x="11" y="645" type="line"/>
			<point x="11" y="629" type="line"/>
			<point x="69" y="636"/>
			<point x="81" y="623"/>
			<point x="81" y="530" type="curve" smooth="yes"/>
		</contour>
	</outline>
</glyph>
<glyph name="n" format="2">
	<advance width="644"/>
	<unicode hex="006E"/>
	<guideline x="25" y="209" angle="90"/>
	<anchor x="319" y="0" name="bottom"/>
	<anchor x="319" y="490" name="top"/>
	<outline>
		<contour>
			<point x="78" y="0" type="line" name="_corner00"/>
			<point x="245" y="0" type="line" name="_corner01"/>
			<point x="245" y="393" type="line"/>
			<point x="257" y="414"/>
			<point x="281" y="439"/>
			<point x="329" y="439" type="curve" smooth="yes"/>
			<point x="369" y="439"/>
			<point x="395" y="421"/>
			<point x="395" y="332" type="curve" smooth="yes"/>
			<point x="395" y="0" type="line" name="_corner02"/>
			<point x="562" y="0" type="line" name="_corner03"/>
			<point x="562" y="351" type="line" smooth="yes"/>
			<point x="562" y="445"/>
			<point x="502" y="510"/>
			<point x="407" y="510" type="curve" smooth="yes"/>
			<point x="321" y="510"/>
			<point x="259" y="457"/>
			<point x="223" y="390" type="curve"/>
			<point x="238" y="390" type="line"/>
			<point x="201" y="507" type="line"/>
			<point x="10" y="431" type="line"/>
			<point x="10" y="413" type="line"/>
			<point x="55" y="418"/>
			<point x="78" y="418"/>
			<point x="78" y="326" type="curve" smooth="yes"/>
		</contour>
	</outline>
</glyph>
<glyph name="o" format="2">
	<advance width="606"/>
	<unicode hex="006F"/>
	<anchor x="303" y="0" name="bottom"/>
	<anchor x="303" y="245" name="center"/>
	<anchor x="545" y="10" name="ogonek"/>
	<anchor x="303" y="490" name="top"/>
	<anchor x="496" y="490" name="topright"/>
	<outline>
		<contour>
			<point x="307" y="-16" type="curve" smooth="yes"/>
			<point x="457" y="-16"/>
			<point x="566" y="81"/>
			<point x="566" y="254" type="curve" smooth="yes"/>
			<point x="566" y="391"/>
			<point x="489" y="510"/>
			<point x="307" y="510" type="curve" smooth="yes"/>
			<point x="135" y="510"/>
			<point x="40" y="404"/>
			<point x="40" y="247" type="curve" smooth="yes"/>
			<point x="40" y="81"/>
			<point x="148" y="-16"/>
		</contour>
		<contour>
			<point x="308" y="2" type="curve" smooth="yes"/>
			<point x="236" y="2"/>
			<point x="213" y="125"/>
			<point x="213" y="262" type="curve" smooth="yes"/>
			<point x="213" y="413"/>
			<point x="241" y="492"/>
			<point x="304" y="492" type="curve" smooth="yes"/>
			<point x="379" y="492"/>
			<point x="393" y="378"/>
			<point x="393" y="254" type="curve" smooth="yes"/>
			<point x="393" y="79"/>
			<point x="365" y="2"/>
		</contour>
	</outline>
</glyph>
<glyph name="p" format="2">
	<advance width="635"/>
	<unicode hex="0070"/>
	<anchor x="317" y="0" name="bottom"/>
	<anchor x="317" y="490" name="top"/>
	<outline>
		<contour>
			<point x="81" y="-208" type="line" name="_corner01"/>
			<point x="248" y="-208" type="line" name="_corner00"/>
			<point x="248" y="393" type="line"/>
			<point x="266" y="421"/>
			<point x="290" y="440"/>
			<point x="325" y="440" type="curve" smooth="yes"/>
			<point x="390" y="440"/>
			<point x="422" y="374"/>
			<point x="422" y="219" type="curve" smooth="yes"/>
			<point x="422" y="74"/>
			<point x="394" y="9"/>
			<point x="324" y="9" type="curve" smooth="yes"/>
			<point x="283" y="9"/>
			<point x="248" y="31"/>
			<point x="248" y="88" type="curve"/>
			<point x="202" y="32" type="line"/>
			<point x="237" y="-8"/>
			<point x="292" y="-16"/>
			<point x="334" y="-16" type="curve" smooth="yes"/>
			<point x="474" y="-16"/>
			<point x="595" y="69"/>
			<point x="595" y="261" type="curve" smooth="yes"/>
			<point x="595" y="400"/>
			<point x="532" y="510"/>
			<point x="405" y="510" type="curve" smooth="yes"/>
			<point x="305" y="510"/>
			<point x="254" y="441"/>
			<point x="225" y="385" type="curve"/>
			<point x="243" y="406" type="line"/>
			<point x="205" y="508" type="line"/>
			<point x="12" y="457" type="line"/>
			<point x="12" y="439" type="line"/>
			<point x="55" y="439"/>
			<point x="81" y="425"/>
			<point x="81" y="377" type="curve"/>
		</contour>
	</outline>
</glyph>
<glyph name="w" format="2">
	<advance width="847"/>
	<unicode hex="0077"/>
	<anchor x="480" y="0" name="bottom"/>
	<anchor x="480" y="490" name="top"/>
	<outline>
		<contour>
			<point x="231" y="-20" type="line"/>
			<point x="280" y="-6" type="line"/>
			<point x="436" y="336" type="line"/>
			<point x="419" y="323" type="line"/>
			<point x="563" y="-20" type="line"/>
			<point x="611" y="-6" type="line"/>
			<point x="768" y="405" type="line" smooth="yes"/>
			<point x="787" y="454"/>
			<point x="811" y="472"/>
			<point x="837" y="472" type="curve"/>
			<point x="837" y="490" type="line"/>
			<point x="687" y="490" type="line"/>
			<point x="687" y="472" type="line"/>
			<point x="743" y="472"/>
			<point x="760" y="460"/>
			<point x="737" y="397" type="curve" smooth="yes"/>
			<point x="651" y="158" type="line"/>
			<point x="660" y="158" type="line"/>
			<point x="528" y="483" type="line"/>
			<point x="505" y="483"/>
			<point x="491" y="479"/>
			<point x="468" y="471" type="curve"/>
			<point x="311" y="119" type="line"/>
			<point x="334" y="133" type="line"/>
			<point x="258" y="397" type="line" smooth="yes"/>
			<point x="241" y="456"/>
			<point x="254" y="472"/>
			<point x="313" y="472" type="curve"/>
			<point x="313" y="490" type="line"/>
			<point x="10" y="490" type="line"/>
			<point x="10" y="472" type="line"/>
			<point x="34" y="472"/>
			<point x="50" y="466"/>
			<point x="62" y="433" type="curve" smooth="yes"/>
		</contour>
	</outline>
</glyph>
<glyph name="z" format="2">
	<advance width="519"/>
	<unicode hex="007A"/>
	<anchor x="233" y="0" name="bottom"/>
	<anchor x="233" y="247" name="center"/>
	<anchor x="259" y="490" name="top"/>
	<outline>
		<contour>
			<point x="30" y="0" type="line"/>
			<point x="466" y="0" type="line"/>
			<point x="483" y="184" type="line"/>
			<point x="465" y="184" type="line"/>
			<point x="440" y="62"/>
			<point x="404" y="23"/>
			<point x="317" y="23" type="curve" smooth="yes"/>
			<point x="196" y="23" type="line"/>
			<point x="210" y="16" type="line"/>
			<point x="494" y="477" type="line"/>
			<point x="487" y="490" type="line"/>
			<point x="52" y="490" type="line"/>
			<point x="37" y="305" type="line"/>
			<point x="58" y="305" type="line"/>
			<point x="82" y="428"/>
			<point x="129" y="467"/>
			<point x="200" y="467" type="curve" smooth="yes"/>
			<point x="339" y="467" type="line"/>
			<point x="326" y="483" type="line"/>
			<point x="25" y="14" type="line"/>
		</contour>
	</outline>
</glyph>
<glyph name="cent" format="2">
	<advance width="516"/>
	<unicode hex="00A2"/>
	<outline>
		<contour>
			<point x="274" y="-16" type="curve" smooth="yes"/>
			<point x="383" y="-16"/>
			<point x="458" y="47"/>
			<point x="488" y="123" type="curve"/>
			<point x="475" y="130" type="line"/>
			<point x="445" y="75"/>
			<point x="404" y="44"/>
			<point x="340" y="44" type="curve" smooth="yes"/>
			<point x="283" y="44"/>
			<point x="222" y="70"/>
			<point x="222" y="227" type="curve" smooth="yes"/>
			<point x="222" y="346"/>
			<point x="257" y="402"/>
			<point x="317" y="402" type="curve" smooth="yes"/>
			<point x="377" y="402"/>
			<point x="435" y="348"/>
			<point x="443" y="226" type="curve"/>
			<point x="462" y="226" type="line"/>
			<point x="455" y="384" type="line"/>
			<point x="423" y="403"/>
			<point x="379" y="420"/>
			<point x="304" y="420" type="curve" smooth="yes"/>
			<point x="145" y="420"/>
			<point x="49" y="338"/>
			<point x="49" y="203" type="curve" smooth="yes"/>
			<point x="49" y="57"/>
			<point x="160" y="-16"/>
		</contour>
		<contour>
			<point x="304" y="-90" type="line"/>
			<point x="326" y="-90" type="line"/>
			<point x="326" y="520" type="line"/>
			<point x="304" y="520" type="line"/>
		</contour>
	</outline>
</glyph>
<glyph name="currency" format="2">
	<advance width="574"/>
	<unicode hex="00A4"/>
	<outline>
		<contour>
			<point x="288" y="57" type="curve" smooth="yes"/>
			<point x="393" y="57"/>
			<point x="471" y="142"/>
			<point x="471" y="244" type="curve" smooth="yes"/>
			<point x="471" y="346"/>
			<point x="393" y="431"/>
			<point x="288" y="431" type="curve" smooth="yes"/>
			<point x="183" y="431"/>
			<point x="105" y="346"/>
			<point x="105" y="244" type="curve" smooth="yes"/>
			<point x="105" y="141"/>
			<point x="183" y="57"/>
		</contour>
		<contour>
			<point x="101" y="34" type="line"/>
			<point x="176" y="109" type="line"/>
			<point x="150" y="135" type="line"/>
			<point x="75" y="58" type="line"/>
		</contour>
		<contour>
			<point x="473" y="34" type="line"/>
			<point x="499" y="58" type="line"/>
			<point x="424" y="135" type="line"/>
			<point x="398" y="109" type="line"/>
		</contour>
		<contour>
			<point x="288" y="92" type="curve" smooth="yes"/>
			<point x="201" y="92"/>
			<point x="143" y="161"/>
			<point x="143" y="244" type="curve" smooth="yes"/>
			<point x="143" y="326"/>
			<point x="201" y="396"/>
			<point x="288" y="396" type="curve" smooth="yes"/>
			<point x="375" y="396"/>
			<point x="433" y="326"/>
			<point x="433" y="244" type="curve" smooth="yes"/>
			<point x="433" y="161"/>
			<point x="375" y="92"/>
		</contour>
		<contour>
			<point x="150" y="352" type="line"/>
			<point x="176" y="378" type="line"/>
			<point x="101" y="453" type="line"/>
			<point x="75" y="429" type="line"/>
		</contour>
		<contour>
			<point x="424" y="352" type="line"/>
			<point x="499" y="429" type="line"/>
			<point x="473" y="453" type="line"/>
			<point x="398" y="378" type="line"/>
		</contour>
	</outline>
</glyph>
<glyph name="yen" format="2">
	<advance width="717"/>
	<unicode hex="00A5"/>
	<outline>
		<contour>
			<point x="275" y="0" type="line" name="_corner00"/>
			<point x="448" y="0" type="line" name="_corner01"/>
			<point x="448" y="287" type="line"/>
			<point x="597" y="552" type="line" smooth="yes"/>
			<point x="636" y="621"/>
			<point x="654" y="632"/>
			<point x="702" y="632" type="curve"/>
			<point x="702" y="652" type="line"/>
			<point x="513" y="652" type="line"/>
			<point x="513" y="632" type="line"/>
			<point x="567" y="632"/>
			<point x="606" y="611"/>
			<point x="579" y="565" type="curve" smooth="yes"/>
			<point x="437" y="317" type="line"/>
			<point x="430" y="317" type="line"/>
			<point x="301" y="557" type="line" smooth="yes"/>
			<point x="275" y="606"/>
			<point x="304" y="632"/>
			<point x="361" y="632" type="curve"/>
			<point x="361" y="652" type="line"/>
			<point x="15" y="652" type="line"/>
			<point x="15" y="632" type="line"/>
			<point x="68" y="632"/>
			<point x="82" y="618"/>
			<point x="107" y="575" type="curve" smooth="yes"/>
			<point x="275" y="287" type="line"/>
		</contour>
		<contour>
			<point x="125" y="289" type="line"/>
			<point x="338" y="289" type="line"/>
			<point x="338" y="311" type="line"/>
			<point x="125" y="311" type="line"/>
		</contour>
		<contour>
			<point x="125" y="189" type="line"/>
			<point x="586" y="189" type="line"/>
			<point x="586" y="211" type="line"/>
			<point x="125" y="211" type="line"/>
		</contour>
		<contour>
			<point x="393" y="289" type="line"/>
			<point x="586" y="289" type="line"/>
			<point x="586" y="311" type="line"/>
			<point x="393" y="311" type="line"/>
		</contour>
	</outline>
</glyph>
<glyph name="section" format="2">
	<advance width="587"/>
	<unicode hex="00A7"/>
	<outline>
		<contour>
			<point x="298" y="-224" type="curve" smooth="yes"/>
			<point x="486" y="-224"/>
			<point x="557" y="-122"/>
			<point x="557" y="-27" type="curve" smooth="yes"/>
			<point x="557" y="189"/>
			<point x="185" y="160"/>
			<point x="185" y="290" type="curve" smooth="yes"/>
			<point x="185" y="326"/>
			<point x="214" y="345"/>
			<point x="260" y="345" type="curve"/>
			<point x="260" y="360" type="line"/>
			<point x="123" y="360"/>
			<point x="45" y="300"/>
			<point x="45" y="209" type="curve" smooth="yes"/>
			<point x="45" y="9"/>
			<point x="422" y="45"/>
			<point x="422" y="-118" type="curve" smooth="yes"/>
			<point x="422" y="-170"/>
			<point x="384" y="-204"/>
			<point x="305" y="-204" type="curve" smooth="yes"/>
			<point x="187" y="-204"/>
			<point x="88" y="-127"/>
			<point x="78" y="48" type="curve"/>
			<point x="60" y="48" type="line"/>
			<point x="40" y="-150" type="line"/>
			<point x="72" y="-169"/>
			<point x="160" y="-224"/>
		</contour>
		<contour>
			<point x="363" y="151" type="line"/>
			<point x="507" y="151"/>
			<point x="557" y="217"/>
			<point x="557" y="295" type="curve" smooth="yes"/>
			<point x="557" y="509"/>
			<point x="185" y="455"/>
			<point x="185" y="607" type="curve" smooth="yes"/>
			<point x="185" y="654"/>
			<point x="220" y="690"/>
			<point x="291" y="690" type="curve" smooth="yes"/>
			<point x="386" y="690"/>
			<point x="469" y="626"/>
			<point x="482" y="494" type="curve"/>
			<point x="501" y="494" type="line"/>
			<point x="521" y="654" type="line"/>
			<point x="470" y="686"/>
			<point x="391" y="708"/>
			<point x="301" y="708" type="curve" smooth="yes"/>
			<point x="126" y="708"/>
			<point x="45" y="626"/>
			<point x="45" y="529" type="curve" smooth="yes"/>
			<point x="45" y="319"/>
			<point x="422" y="358"/>
			<point x="422" y="216" type="curve" smooth="yes"/>
			<point x="422" y="183"/>
			<point x="401" y="164"/>
			<point x="364" y="164" type="curve"/>
		</contour>
	</outline>
</glyph>
<glyph name="copyright" format="2">
	<advance width="862"/>
	<unicode hex="00A9"/>
	<outline>
		<contour>
			<point x="431" y="-40" type="curve" smooth="yes"/>
			<point x="655" y="-40"/>
			<point x="817" y="133"/>
			<point x="817" y="346" type="curve" smooth="yes"/>
			<point x="817" y="560"/>
			<point x="655" y="732" name="❌"/>
			<point x="431" y="732" type="curve" smooth="yes" name="❌"/>
			<point x="208" y="732" name="❌"/>
			<point x="45" y="560"/>
			<point x="45" y="346" type="curve" smooth="yes"/>
			<point x="45" y="133"/>
			<point x="208" y="-40"/>
		</contour>
		<contour>
			<point x="433" y="111" type="curve" smooth="yes"/>
			<point x="528" y="111"/>
			<point x="599" y="165"/>
			<point x="627" y="230" type="curve"/>
			<point x="614" y="240" type="line"/>
			<point x="588" y="196"/>
			<point x="549" y="171"/>
			<point x="498" y="171" type="curve" smooth="yes"/>
			<point x="443" y="171"/>
			<point x="391" y="201"/>
			<point x="391" y="378" type="curve" smooth="yes"/>
			<point x="391" y="504"/>
			<point x="418" y="559"/>
			<point x="469" y="559" type="curve" smooth="yes"/>
			<point x="520" y="559"/>
			<point x="575" y="508"/>
			<point x="582" y="403" type="curve"/>
			<point x="601" y="403" type="line"/>
			<point x="594" y="534" type="line"/>
			<point x="564" y="557"/>
			<point x="524" y="577"/>
			<point x="455" y="577" type="curve" smooth="yes"/>
			<point x="305" y="577"/>
			<point x="218" y="484"/>
			<point x="218" y="341" type="curve" smooth="yes"/>
			<point x="218" y="186"/>
			<point x="320" y="111"/>
		</contour>
		<contour>
			<point x="431" y="-20" type="curve" smooth="yes"/>
			<point x="222" y="-20"/>
			<point x="68" y="137"/>
			<point x="68" y="346" type="curve" smooth="yes"/>
			<point x="68" y="556"/>
			<point x="222" y="712" name="❌"/>
			<point x="431" y="712" type="curve" smooth="yes" name="❌"/>
			<point x="641" y="712" name="❌"/>
			<point x="794" y="556"/>
			<point x="794" y="346" type="curve" smooth="yes"/>
			<point x="794" y="137"/>
			<point x="641" y="-20"/>
		</contour>
	</outline>
</glyph>
<glyph name="ordmasculine" format="2">
	<advance width="368"/>
	<unicode hex="00BA"/>
	<outline>
		<contour>
			<point x="182" y="350" type="curve" smooth="yes"/>
			<point x="269" y="350"/>
			<point x="328" y="403"/>
			<point x="328" y="480" type="curve" smooth="yes"/>
			<point x="328" y="561"/>
			<point x="262" y="610"/>
			<point x="181" y="610" type="curve" smooth="yes"/>
			<point x="96" y="610"/>
			<point x="40" y="553"/>
			<point x="40" y="479" type="curve" smooth="yes"/>
			<point x="40" y="402"/>
			<point x="99" y="350"/>
		</contour>
		<contour>
			<point x="189" y="368" type="curve" smooth="yes"/>
			<point x="169" y="368"/>
			<point x="146" y="390"/>
			<point x="146" y="494" type="curve" smooth="yes"/>
			<point x="146" y="566"/>
			<point x="157" y="592"/>
			<point x="178" y="592" type="curve" smooth="yes"/>
			<point x="198" y="592"/>
			<point x="220" y="569"/>
			<point x="220" y="466" type="curve" smooth="yes"/>
			<point x="220" y="390"/>
			<point x="208" y="368"/>
		</contour>
	</outline>
</glyph>
<glyph name="AE" format="2">
	<advance width="957"/>
	<unicode hex="00C6"/>
	<outline>
		<contour>
			<point x="62" y="0" type="line" name="_corner02"/>
			<point x="89" y="0" type="line" name="_corner00"/>
			<point x="438" y="672" type="line"/>
			<point x="739" y="672" type="line" smooth="yes"/>
			<point x="826" y="672"/>
			<point x="869" y="646"/>
			<point x="906" y="484" type="curve"/>
			<point x="926" y="484" type="line"/>
			<point x="895" y="692" type="line"/>
			<point x="424" y="692" type="line" name="_corner01"/>
		</contour>
		<contour>
			<point x="517" y="0" type="line" name="🧨"/>
			<point x="906" y="0" type="line"/>
			<point x="937" y="223" type="line"/>
			<point x="916" y="223" type="line"/>
			<point x="892" y="83"/>
			<point x="848" y="20"/>
			<point x="740" y="20" type="curve" smooth="yes"/>
			<point x="517" y="20" type="line"/>
		</contour>
		<contour>
			<point x="425" y="0" type="line" name="_corner03"/>
			<point x="598" y="0" type="line" name="🧨"/>
			<point x="598" y="692" type="line" name="🧨"/>
			<point x="425" y="692" type="line" name="🧨"/>
		</contour>
		<contour>
			<point x="768" y="226" type="curve"/>
			<point x="788" y="226" type="line"/>
			<point x="788" y="463" type="line"/>
			<point x="768" y="463" type="line"/>
			<point x="766" y="380"/>
			<point x="745" y="355"/>
			<point x="679" y="355" type="curve" smooth="yes"/>
			<point x="263" y="355" type="line"/>
			<point x="253" y="335" type="line"/>
			<point x="679" y="335" type="line" smooth="yes"/>
			<point x="745" y="335"/>
			<point x="768" y="299"/>
		</contour>
	</outline>
</glyph>
<glyph name="multiply" format="2">
	<advance width="600"/>
	<unicode hex="00D7"/>
	<outline>
		<contour>
			<point x="449" y="108" type="line"/>
			<point x="476" y="135" type="line"/>
			<point x="145" y="467" type="line"/>
			<point x="118" y="440" type="line"/>
		</contour>
		<contour>
			<point x="143" y="107" type="line"/>
			<point x="478" y="445" type="line"/>
			<point x="453" y="470" type="line"/>
			<point x="118" y="132" type="line"/>
		</contour>
	</outline>
</glyph>
<glyph name="Thorn" format="2">
	<advance width="660"/>
	<unicode hex="00DE"/>
	<anchor x="207" y="0" name="bottom"/>
	<anchor x="322" y="10" name="ogonek"/>
	<anchor x="207" y="692" name="top"/>
	<anchor x="20" y="692" name="topleft"/>
	<outline>
		<contour>
			<point x="281" y="172" type="line"/>
			<point x="376" y="172" type="line" smooth="yes"/>
			<point x="556" y="172"/>
			<point x="645" y="245"/>
			<point x="645" y="362" type="curve" smooth="yes"/>
			<point x="645" y="470"/>
			<point x="569" y="552"/>
			<point x="391" y="552" type="curve" smooth="yes"/>
			<point x="283" y="552" type="line"/>
			<point x="283" y="532" type="line"/>
			<point x="328" y="532" type="line" smooth="yes"/>
			<point x="412" y="532"/>
			<point x="469" y="503"/>
			<point x="469" y="360" type="curve" smooth="yes"/>
			<point x="469" y="229"/>
			<point x="424" y="192"/>
			<point x="328" y="192" type="curve" smooth="yes"/>
			<point x="281" y="192" type="line"/>
		</contour>
		<contour>
			<point x="120" y="0" type="line" name="_corner03"/>
			<point x="293" y="0" type="line" name="_corner00"/>
			<point x="293" y="692" type="line" name="_corner01"/>
			<point x="120" y="692" type="line" name="_corner02"/>
		</contour>
	</outline>
</glyph>
<glyph name="divide" format="2">
	<advance width="600"/>
	<unicode hex="00F7"/>
	<outline>
		<contour>
			<point x="300" y="378" type="curve" smooth="yes"/>
			<point x="334" y="378"/>
			<point x="361" y="405"/>
			<point x="361" y="439" type="curve" smooth="yes"/>
			<point x="361" y="472"/>
			<point x="334" y="498"/>
			<point x="300" y="498" type="curve" smooth="yes"/>
			<point x="267" y="498"/>
			<point x="240" y="472"/>
			<point x="240" y="439" type="curve" smooth="yes"/>
			<point x="240" y="405"/>
			<point x="267" y="378"/>
		</contour>
		<contour>
			<point x="300" y="48" type="curve" smooth="yes"/>
			<point x="334" y="48"/>
			<point x="361" y="74"/>
			<point x="361" y="109" type="curve" smooth="yes"/>
			<point x="361" y="141"/>
			<point x="334" y="168"/>
			<point x="300" y="168" type="curve" smooth="yes"/>
			<point x="267" y="168"/>
			<point x="240" y="141"/>
			<point x="240" y="109" type="curve" smooth="yes"/>
			<point x="240" y="74"/>
			<point x="267" y="48"/>
		</contour>
		<contour>
			<point x="100" y="263" type="line"/>
			<point x="501" y="263" type="line"/>
			<point x="501" y="303" type="line"/>
			<point x="100" y="303" type="line"/>
		</contour>
	</outline>
</glyph>
<glyph name="thorn" format="2">
	<advance width="635"/>
	<unicode hex="00FE"/>
	<outline>
		<contour>
			<point x="81" y="-208" type="line" name="_corner01"/>
			<point x="248" y="-208" type="line" name="_corner00"/>
			<point x="248" y="6" type="line"/>
			<point x="274" y="-8"/>
			<point x="304" y="-16"/>
			<point x="346" y="-16" type="curve" smooth="yes"/>
			<point x="489" y="-16"/>
			<point x="595" y="78"/>
			<point x="595" y="257" type="curve" smooth="yes"/>
			<point x="595" y="401"/>
			<point x="526" y="510"/>
			<point x="403" y="510" type="curve" smooth="yes"/>
			<point x="337" y="510"/>
			<point x="286" y="476"/>
			<point x="255" y="428" type="curve"/>
			<point x="248" y="428" type="line"/>
			<point x="248" y="730" type="line"/>
			<point x="232" y="730" type="line"/>
			<point x="11" y="645" type="line"/>
			<point x="11" y="629" type="line"/>
			<point x="69" y="636"/>
			<point x="81" y="623"/>
			<point x="81" y="530" type="curve" smooth="yes"/>
		</contour>
		<contour>
			<point x="321" y="10" type="curve" smooth="yes"/>
			<point x="280" y="10"/>
			<point x="248" y="35"/>
			<point x="248" y="83" type="curve" smooth="yes"/>
			<point x="248" y="390" type="line"/>
			<point x="263" y="414"/>
			<point x="293" y="439"/>
			<point x="334" y="439" type="curve" smooth="yes"/>
			<point x="394" y="439"/>
			<point x="425" y="386"/>
			<point x="425" y="238" type="curve" smooth="yes"/>
			<point x="425" y="82"/>
			<point x="391" y="10"/>
		</contour>
	</outline>
</glyph>
<glyph name="idotless" format="2">
	<advance width="327"/>
	<unicode hex="0131"/>
	<anchor x="162" y="0" name="bottom"/>
	<anchor x="223" y="0" name="ogonek"/>
	<anchor x="168" y="490" name="top"/>
	<outline>
		<contour>
			<point x="78" y="0" type="line" name="_corner01"/>
			<point x="245" y="0" type="line" name="_corner00"/>
			<point x="245" y="490" type="line"/>
			<point x="229" y="490" type="line"/>
			<point x="8" y="405" type="line"/>
			<point x="8" y="389" type="line"/>
			<point x="66" y="396"/>
			<point x="78" y="383"/>
			<point x="78" y="290" type="curve" smooth="yes"/>
		</contour>
	</outline>
</glyph>
<glyph name="OE" format="2">
	<advance width="1012"/>
	<unicode hex="0152"/>
	<anchor x="506" y="0" name="bottom"/>
	<anchor x="506" y="692" name="top"/>
	<outline>
		<contour>
			<point x="414" y="0" type="curve" smooth="yes"/>
			<point x="562" y="0" type="line" name="🧨"/>
			<point x="562" y="21" type="line"/>
			<point x="425" y="21" type="line" smooth="yes"/>
			<point x="296" y="21"/>
			<point x="229" y="172"/>
			<point x="229" y="389" type="curve" smooth="yes"/>
			<point x="229" y="603"/>
			<point x="294" y="672"/>
			<point x="399" y="672" type="curve" smooth="yes"/>
			<point x="532" y="672" type="line"/>
			<point x="532" y="692" type="line" name="🧨"/>
			<point x="410" y="692" type="line" smooth="yes"/>
			<point x="215" y="692"/>
			<point x="40" y="564"/>
			<point x="40" y="344" type="curve" smooth="yes"/>
			<point x="40" y="124"/>
			<point x="217" y="0"/>
		</contour>
		<contour>
			<point x="572" y="0" type="line" name="🧨"/>
			<point x="961" y="0" type="line"/>
			<point x="992" y="223" type="line"/>
			<point x="971" y="223" type="line"/>
			<point x="947" y="83"/>
			<point x="903" y="20"/>
			<point x="795" y="20" type="curve" smooth="yes"/>
			<point x="572" y="20" type="line"/>
		</contour>
		<contour>
			<point x="480" y="0" type="line" name="🧨"/>
			<point x="653" y="0" type="line" name="🧨"/>
			<point x="653" y="692" type="line" name="🧨"/>
			<point x="480" y="692" type="line" name="🧨"/>
		</contour>
		<contour>
			<point x="823" y="226" type="curve"/>
			<point x="843" y="226" type="line"/>
			<point x="843" y="463" type="line"/>
			<point x="823" y="463" type="line"/>
			<point x="821" y="380"/>
			<point x="800" y="355"/>
			<point x="734" y="355" type="curve" smooth="yes"/>
			<point x="558" y="355" type="line"/>
			<point x="558" y="335" type="line"/>
			<point x="734" y="335" type="line" smooth="yes"/>
			<point x="800" y="335"/>
			<point x="823" y="299"/>
		</contour>
		<contour>
			<point x="961" y="484" type="curve"/>
			<point x="981" y="484" type="line"/>
			<point x="950" y="692" type="line"/>
			<point x="572" y="692" type="line" name="🧨"/>
			<point x="572" y="672" type="line"/>
			<point x="794" y="672" type="line" smooth="yes"/>
			<point x="886" y="672"/>
			<point x="926" y="641"/>
		</contour>
	</outline>
</glyph>
<glyph name="oe" format="2">
	<advance width="913"/>
	<unicode hex="0153"/>
	<anchor x="460" y="0" name="bottom"/>
	<anchor x="460" y="490" name="top"/>
	<outline>
		<contour>
			<point x="299" y="-16" type="curve" smooth="yes"/>
			<point x="379" y="-16"/>
			<point x="433" y="12"/>
			<point x="479" y="77" type="curve"/>
			<point x="522" y="13"/>
			<point x="580" y="-16"/>
			<point x="656" y="-16" type="curve" smooth="yes"/>
			<point x="755" y="-16"/>
			<point x="833" y="34"/>
			<point x="880" y="130" type="curve"/>
			<point x="869" y="138" type="line"/>
			<point x="841" y="84"/>
			<point x="785" y="55"/>
			<point x="720" y="55" type="curve" smooth="yes"/>
			<point x="614" y="55"/>
			<point x="564" y="132"/>
			<point x="564" y="297" type="curve" smooth="yes"/>
			<point x="564" y="436"/>
			<point x="599" y="493"/>
			<point x="655" y="493" type="curve" smooth="yes"/>
			<point x="714" y="493"/>
			<point x="729" y="430"/>
			<point x="722" y="282" type="curve"/>
			<point x="741" y="294" type="line"/>
			<point x="537" y="294" type="line"/>
			<point x="537" y="274" type="line"/>
			<point x="881" y="274" type="line"/>
			<point x="891" y="445"/>
			<point x="795" y="510"/>
			<point x="668" y="510" type="curve" smooth="yes"/>
			<point x="579" y="510"/>
			<point x="529" y="478"/>
			<point x="485" y="417" type="curve"/>
			<point x="443" y="478"/>
			<point x="390" y="510"/>
			<point x="301" y="510" type="curve" smooth="yes"/>
			<point x="138" y="510"/>
			<point x="40" y="404"/>
			<point x="40" y="248" type="curve" smooth="yes"/>
			<point x="40" y="81"/>
			<point x="151" y="-16"/>
		</contour>
		<contour>
			<point x="308" y="2" type="curve" smooth="yes"/>
			<point x="236" y="2"/>
			<point x="213" y="125"/>
			<point x="213" y="262" type="curve" smooth="yes"/>
			<point x="213" y="413"/>
			<point x="241" y="492"/>
			<point x="304" y="492" type="curve" smooth="yes"/>
			<point x="379" y="492"/>
			<point x="393" y="378"/>
			<point x="393" y="254" type="curve" smooth="yes"/>
			<point x="393" y="79"/>
			<point x="365" y="2"/>
		</contour>
	</outline>
</glyph>
<glyph name="gravecomb" format="2">
	<advance width="403"/>
	<unicode hex="0300"/>
	<anchor x="237" y="490" name="_top"/>
	<anchor x="202" y="704" name="top"/>
	<outline>
		<contour>
			<point x="287" y="533" type="line"/>
			<point x="304" y="546" type="line"/>
			<point x="233" y="704" type="line"/>
			<point x="92" y="704" type="line"/>
			<point x="92" y="686" type="line"/>
		</contour>
	</outline>
</glyph>
<glyph name="acutecomb" format="2">
	<advance width="403"/>
	<unicode hex="0301"/>
	<anchor x="139" y="490" name="_top"/>
	<anchor x="139" y="704" name="top"/>
	<outline>
		<contour>
			<point x="116" y="533" type="line"/>
			<point x="311" y="686" type="line"/>
			<point x="311" y="704" type="line"/>
			<point x="170" y="704" type="line"/>
			<point x="99" y="546" type="line"/>
		</contour>
	</outline>
</glyph>
<glyph name="tildecomb" format="2">
	<advance width="429"/>
	<unicode hex="0303"/>
	<anchor x="213" y="490" name="_top"/>
	<anchor x="230" y="693" name="top"/>
	<outline>
		<contour>
			<point x="63" y="550" type="line"/>
			<point x="84" y="596"/>
			<point x="100" y="610"/>
			<point x="123" y="610" type="curve" smooth="yes"/>
			<point x="172" y="610"/>
			<point x="217" y="548"/>
			<point x="275" y="548" type="curve" smooth="yes"/>
			<point x="324" y="548"/>
			<point x="359" y="593"/>
			<point x="384" y="683" type="curve"/>
			<point x="366" y="690" type="line"/>
			<point x="350" y="653"/>
			<point x="339" y="640"/>
			<point x="316" y="640" type="curve" smooth="yes"/>
			<point x="267" y="640"/>
			<point x="228" y="702" name="❌"/>
			<point x="167" y="702" type="curve" smooth="yes" name="❌"/>
			<point x="111" y="702" name="❌"/>
			<point x="75" y="651"/>
			<point x="45" y="558" type="curve"/>
		</contour>
	</outline>
</glyph>
<glyph name="brevecomb" format="2">
	<advance width="416"/>
	<unicode hex="0306"/>
	<anchor x="207" y="490" name="_top"/>
	<anchor x="207" y="703" name="top"/>
	<anchor x="207" y="638" name="top_viet"/>
	<outline>
		<contour>
			<point x="207" y="547" type="curve" smooth="yes"/>
			<point x="295" y="547"/>
			<point x="336" y="600"/>
			<point x="333" y="703" type="curve"/>
			<point x="315" y="703" type="line"/>
			<point x="306" y="652"/>
			<point x="261" y="638"/>
			<point x="207" y="638" type="curve" smooth="yes"/>
			<point x="153" y="638"/>
			<point x="108" y="652"/>
			<point x="99" y="703" type="curve"/>
			<point x="81" y="703" type="line"/>
			<point x="78" y="600"/>
			<point x="119" y="547"/>
		</contour>
	</outline>
</glyph>
<glyph name="dotaccentcomb" format="2">
	<advance width="338"/>
	<unicode hex="0307"/>
	<anchor x="169" y="490" name="_top"/>
	<anchor x="169" y="727" name="top"/>
	<outline>
		<contour>
			<point x="169" y="532" type="curve" smooth="yes"/>
			<point x="221" y="532"/>
			<point x="267" y="571"/>
			<point x="267" y="630" type="curve" smooth="yes"/>
			<point x="267" y="688"/>
			<point x="221" y="727"/>
			<point x="169" y="727" type="curve" smooth="yes"/>
			<point x="116" y="727"/>
			<point x="71" y="688"/>
			<point x="71" y="630" type="curve" smooth="yes"/>
			<point x="71" y="571"/>
			<point x="116" y="532"/>
		</contour>
	</outline>
</glyph>
<glyph name="caroncomb" format="2">
	<advance width="450"/>
	<unicode hex="030C"/>
	<anchor x="225" y="490" name="_top"/>
	<anchor x="225" y="547" name="bottom"/>
	<anchor x="225" y="710" name="top"/>
	<outline>
		<contour>
			<point x="217" y="544" type="line"/>
			<point x="235" y="544" type="line"/>
			<point x="371" y="719" type="line"/>
			<point x="357" y="733" type="line"/>
			<point x="225" y="660" type="line"/>
			<point x="93" y="733" type="line"/>
			<point x="79" y="719" type="line"/>
		</contour>
	</outline>
</glyph>
<glyph name="dotbelowcomb" format="2">
	<advance width="254"/>
	<unicode hex="0323"/>
	<anchor x="128" y="0" name="_bottom"/>
	<anchor x="128" y="-218" name="bottom"/>
	<outline>
		<contour>
			<point x="127" y="-209" type="curve" smooth="yes"/>
			<point x="171" y="-209"/>
			<point x="209" y="-176"/>
			<point x="209" y="-128" type="curve" smooth="yes"/>
			<point x="209" y="-82"/>
			<point x="171" y="-49"/>
			<point x="127" y="-49" type="curve" smooth="yes"/>
			<point x="83" y="-49"/>
			<point x="45" y="-82"/>
			<point x="45" y="-128" type="curve" smooth="yes"/>
			<point x="45" y="-176"/>
			<point x="83" y="-209"/>
		</contour>
	</outline>
</glyph>
<glyph name="cedillacomb" format="2">
	<advance width="600"/>
	<unicode hex="0327"/>
	<anchor x="284" y="0" name="_bottom"/>
	<anchor x="300" y="-220" name="bottom"/>
	<outline>
		<contour>
			<point x="295" y="-220" type="curve" smooth="yes"/>
			<point x="358" y="-220"/>
			<point x="395" y="-178"/>
			<point x="395" y="-131" type="curve" smooth="yes"/>
			<point x="395" y="-85"/>
			<point x="357" y="-51"/>
			<point x="280" y="-39" type="curve"/>
			<point x="291" y="0" type="line"/>
			<point x="273" y="0" type="line"/>
			<point x="244" y="-99" type="line"/>
			<point x="287" y="-103"/>
			<point x="321" y="-120"/>
			<point x="321" y="-153" type="curve" smooth="yes"/>
			<point x="321" y="-177"/>
			<point x="302" y="-192"/>
			<point x="275" y="-192" type="curve" smooth="yes"/>
			<point x="255" y="-192"/>
			<point x="230" y="-184"/>
			<point x="200" y="-152" type="curve"/>
			<point x="186" y="-168" type="line"/>
			<point x="209" y="-197"/>
			<point x="247" y="-220"/>
		</contour>
	</outline>
</glyph>
<glyph name="Omega" format="2">
	<advance width="816"/>
	<unicode hex="03A9"/>
	<outline>
		<contour>
			<point x="52" y="0" type="line"/>
			<point x="375" y="0" type="line"/>
			<point x="375" y="148" type="line"/>
			<point x="288" y="185"/>
			<point x="240" y="283"/>
			<point x="240" y="420" type="curve" smooth="yes"/>
			<point x="240" y="570"/>
			<point x="298" y="684"/>
			<point x="410" y="684" type="curve" smooth="yes"/>
			<point x="522" y="684"/>
			<point x="580" y="570"/>
			<point x="580" y="420" type="curve" smooth="yes"/>
			<point x="580" y="283"/>
			<point x="532" y="185"/>
			<point x="445" y="148" type="curve"/>
			<point x="445" y="0" type="line"/>
			<point x="764" y="0" type="line"/>
			<point x="764" y="190" type="line"/>
			<point x="745" y="190" type="line"/>
			<point x="728" y="121"/>
			<point x="705" y="95"/>
			<point x="645" y="95" type="curve" smooth="yes"/>
			<point x="467" y="95" type="line"/>
			<point x="467" y="135" type="line"/>
			<point x="599" y="161"/>
			<point x="758" y="239"/>
			<point x="758" y="419" type="curve" smooth="yes"/>
			<point x="758" y="585"/>
			<point x="624" y="704"/>
			<point x="409" y="704" type="curve" smooth="yes"/>
			<point x="204" y="704"/>
			<point x="52" y="595"/>
			<point x="52" y="420" type="curve" smooth="yes"/>
			<point x="52" y="240"/>
			<point x="212" y="162"/>
			<point x="353" y="135" type="curve"/>
			<point x="353" y="95" type="line"/>
			<point x="171" y="95" type="line" smooth="yes"/>
			<point x="112" y="95"/>
			<point x="83" y="121"/>
			<point x="71" y="190" type="curve"/>
			<point x="52" y="190" type="line"/>
		</contour>
	</outline>
</glyph>
<glyph name="Germandbls" format="2">
	<advance width="795"/>
	<unicode hex="1E9E"/>
	<outline>
		<contour>
			<point x="440" y="-8" type="line"/>
			<point x="586" y="-2"/>
			<point x="768" y="56"/>
			<point x="765" y="210" type="curve" smooth="yes"/>
			<point x="763" y="359"/>
			<point x="603" y="400"/>
			<point x="418" y="384" type="curve"/>
			<point x="545" y="360" type="line"/>
			<point x="711" y="677" type="line"/>
			<point x="711" y="692" type="line"/>
			<point x="263" y="692" type="line"/>
			<point x="263" y="670" type="line" name="🧨"/>
			<point x="564" y="670" type="line"/>
			<point x="555" y="685" type="line"/>
			<point x="405" y="393" type="line"/>
			<point x="405" y="372" type="line"/>
			<point x="518" y="358"/>
			<point x="589" y="324"/>
			<point x="589" y="194" type="curve" smooth="yes"/>
			<point x="589" y="83"/>
			<point x="533" y="25"/>
			<point x="437" y="15" type="curve"/>
		</contour>
		<contour>
			<point x="120" y="0" type="line" name="_corner02"/>
			<point x="293" y="0" type="line" name="_corner00"/>
			<point x="293" y="692" type="line" name="🔥"/>
			<point x="120" y="692" type="line" name="_corner01"/>
		</contour>
	</outline>
</glyph>
<glyph name="dagger" format="2">
	<advance width="469"/>
	<unicode hex="2020"/>
	<outline>
		<contour>
			<point x="409" y="547" type="line"/>
			<point x="409" y="501"/>
			<point x="402" y="471"/>
			<point x="367" y="471" type="curve" smooth="yes"/>
			<point x="288" y="471" type="line" smooth="yes"/>
			<point x="256" y="471"/>
			<point x="245" y="487"/>
			<point x="245" y="517" type="curve" smooth="yes"/>
			<point x="245" y="588" type="line" smooth="yes"/>
			<point x="245" y="619"/>
			<point x="270" y="635"/>
			<point x="323" y="635" type="curve"/>
			<point x="323" y="653" type="line"/>
			<point x="146" y="653" type="line"/>
			<point x="146" y="635" type="line"/>
			<point x="199" y="635"/>
			<point x="224" y="619"/>
			<point x="224" y="588" type="curve" smooth="yes"/>
			<point x="224" y="517" type="line" smooth="yes"/>
			<point x="224" y="487"/>
			<point x="213" y="471"/>
			<point x="181" y="471" type="curve" smooth="yes"/>
			<point x="102" y="471" type="line" smooth="yes"/>
			<point x="71" y="471"/>
			<point x="60" y="501"/>
			<point x="60" y="547" type="curve"/>
			<point x="40" y="547" type="line"/>
			<point x="40" y="375" type="line"/>
			<point x="60" y="375" type="line"/>
			<point x="60" y="421"/>
			<point x="71" y="451"/>
			<point x="102" y="451" type="curve" smooth="yes"/>
			<point x="181" y="451" type="line" smooth="yes"/>
			<point x="213" y="451"/>
			<point x="224" y="435"/>
			<point x="224" y="405" type="curve" smooth="yes"/>
			<point x="224" y="359" type="line" smooth="yes"/>
			<point x="224" y="315"/>
			<point x="184" y="285"/>
			<point x="141" y="280" type="curve"/>
			<point x="141" y="260" type="line"/>
			<point x="180" y="243"/>
			<point x="214" y="195"/>
			<point x="225" y="-72" type="curve"/>
			<point x="244" y="-72" type="line"/>
			<point x="255" y="195"/>
			<point x="289" y="243"/>
			<point x="328" y="260" type="curve"/>
			<point x="328" y="280" type="line"/>
			<point x="285" y="285"/>
			<point x="245" y="315"/>
			<point x="245" y="359" type="curve" smooth="yes"/>
			<point x="245" y="405" type="line" smooth="yes"/>
			<point x="245" y="435"/>
			<point x="256" y="451"/>
			<point x="288" y="451" type="curve" smooth="yes"/>
			<point x="367" y="451" type="line" smooth="yes"/>
			<point x="402" y="451"/>
			<point x="409" y="421"/>
			<point x="409" y="375" type="curve"/>
			<point x="429" y="375" type="line"/>
			<point x="429" y="547" type="line"/>
		</contour>
	</outline>
</glyph>
<glyph name="guilsinglleft" format="2">
	<advance width="385"/>
	<unicode hex="2039"/>
	<outline>
		<contour>
			<point x="295" y="54" type="curve"/>
			<point x="310" y="64" type="line"/>
			<point x="278" y="143"/>
			<point x="234" y="215"/>
			<point x="152" y="265" type="curve"/>
			<point x="152" y="223" type="line"/>
			<point x="234" y="276"/>
			<point x="278" y="351"/>
			<point x="310" y="434" type="curve"/>
			<point x="295" y="444" type="line"/>
			<point x="225" y="369"/>
			<point x="163" y="312"/>
			<point x="50" y="259" type="curve"/>
			<point x="50" y="229" type="line"/>
			<point x="163" y="180"/>
			<point x="225" y="125"/>
		</contour>
	</outline>
</glyph>
<glyph name="sixsuperior" format="2">
	<advance width="375"/>
	<unicode hex="2076"/>
	<outline>
		<contour>
			<point x="195" y="378" type="curve" smooth="yes"/>
			<point x="268" y="378"/>
			<point x="329" y="419"/>
			<point x="329" y="488" type="curve" smooth="yes"/>
			<point x="329" y="538"/>
			<point x="296" y="583"/>
			<point x="228" y="583" type="curve" smooth="yes"/>
			<point x="186" y="583"/>
			<point x="161" y="566"/>
			<point x="146" y="540" type="curve"/>
			<point x="151" y="522" type="line"/>
			<point x="157" y="540"/>
			<point x="174" y="552"/>
			<point x="190" y="552" type="curve" smooth="yes"/>
			<point x="218" y="552"/>
			<point x="228" y="516"/>
			<point x="228" y="472" type="curve" smooth="yes"/>
			<point x="228" y="422"/>
			<point x="215" y="396"/>
			<point x="195" y="396" type="curve" smooth="yes"/>
			<point x="173" y="396"/>
			<point x="153" y="429"/>
			<point x="153" y="506" type="curve" smooth="yes"/>
			<point x="153" y="627"/>
			<point x="202" y="670"/>
			<point x="304" y="676" type="curve"/>
			<point x="302" y="694" type="line"/>
			<point x="152" y="691"/>
			<point x="50" y="616"/>
			<point x="50" y="513" type="curve" smooth="yes"/>
			<point x="50" y="432"/>
			<point x="112" y="378"/>
		</contour>
	</outline>
</glyph>
<glyph name="eightsuperior" format="2">
	<advance width="333"/>
	<unicode hex="2078"/>
	<outline>
		<contour>
			<point x="164" y="382" type="curve" smooth="yes"/>
			<point x="238" y="382"/>
			<point x="303" y="417"/>
			<point x="303" y="481" type="curve" smooth="yes"/>
			<point x="303" y="585"/>
			<point x="131" y="581"/>
			<point x="131" y="654" type="curve" smooth="yes"/>
			<point x="131" y="671"/>
			<point x="141" y="686"/>
			<point x="161" y="686" type="curve" smooth="yes"/>
			<point x="180" y="686"/>
			<point x="194" y="673"/>
			<point x="194" y="637" type="curve" smooth="yes"/>
			<point x="194" y="609"/>
			<point x="185" y="592"/>
			<point x="163" y="574" type="curve"/>
			<point x="166" y="567" type="line"/>
			<point x="272" y="585"/>
			<point x="286" y="617"/>
			<point x="286" y="638" type="curve" smooth="yes"/>
			<point x="286" y="678"/>
			<point x="235" y="704"/>
			<point x="167" y="704" type="curve" smooth="yes"/>
			<point x="94" y="704"/>
			<point x="41" y="672"/>
			<point x="41" y="618" type="curve" smooth="yes"/>
			<point x="41" y="520"/>
			<point x="216" y="518"/>
			<point x="216" y="441" type="curve" smooth="yes"/>
			<point x="216" y="419"/>
			<point x="202" y="400"/>
			<point x="172" y="400" type="curve" smooth="yes"/>
			<point x="148" y="400"/>
			<point x="127" y="413"/>
			<point x="127" y="463" type="curve" smooth="yes"/>
			<point x="127" y="494"/>
			<point x="137" y="519"/>
			<point x="149" y="538" type="curve"/>
			<point x="143" y="543" type="line"/>
			<point x="72" y="529"/>
			<point x="30" y="502"/>
			<point x="30" y="464" type="curve" smooth="yes"/>
			<point x="30" y="414"/>
			<point x="93" y="382"/>
		</contour>
	</outline>
</glyph>
<glyph name="ninesuperior" format="2">
	<advance width="375"/>
	<unicode hex="2079"/>
	<outline>
		<contour>
			<point x="73" y="388" type="line"/>
			<point x="223" y="391"/>
			<point x="325" y="466"/>
			<point x="325" y="569" type="curve" smooth="yes"/>
			<point x="325" y="650"/>
			<point x="263" y="704"/>
			<point x="180" y="704" type="curve" smooth="yes"/>
			<point x="107" y="704"/>
			<point x="46" y="663"/>
			<point x="46" y="594" type="curve" smooth="yes"/>
			<point x="46" y="544"/>
			<point x="79" y="499"/>
			<point x="147" y="499" type="curve" smooth="yes"/>
			<point x="189" y="499"/>
			<point x="214" y="516"/>
			<point x="229" y="542" type="curve"/>
			<point x="224" y="560" type="line"/>
			<point x="218" y="542"/>
			<point x="201" y="530"/>
			<point x="185" y="530" type="curve" smooth="yes"/>
			<point x="157" y="530"/>
			<point x="147" y="566"/>
			<point x="147" y="610" type="curve" smooth="yes"/>
			<point x="147" y="660"/>
			<point x="160" y="686"/>
			<point x="180" y="686" type="curve" smooth="yes"/>
			<point x="202" y="686"/>
			<point x="222" y="653"/>
			<point x="222" y="576" type="curve" smooth="yes"/>
			<point x="222" y="455"/>
			<point x="173" y="412"/>
			<point x="71" y="406" type="curve"/>
		</contour>
	</outline>
</glyph>
<glyph name="colonsign" format="2">
	<advance width="624"/>
	<unicode hex="20A1"/>
	<note>
		uni20A1
	</note>
	<outline>
		<contour>
			<point x="351" y="-16" type="curve" smooth="yes"/>
			<point x="473" y="-16"/>
			<point x="553" y="42"/>
			<point x="601" y="155" type="curve"/>
			<point x="581" y="168" type="line"/>
			<point x="532" y="64"/>
			<point x="465" y="42"/>
			<point x="414" y="42" type="curve" smooth="yes"/>
			<point x="300" y="42"/>
			<point x="229" y="138"/>
			<point x="229" y="353" type="curve" smooth="yes"/>
			<point x="229" y="566"/>
			<point x="299" y="648"/>
			<point x="384" y="648" type="curve" smooth="yes"/>
			<point x="460" y="648"/>
			<point x="536" y="583"/>
			<point x="544" y="410" type="curve"/>
			<point x="564" y="410" type="line"/>
			<point x="564" y="609" type="line"/>
			<point x="510" y="655"/>
			<point x="445" y="668"/>
			<point x="387" y="668" type="curve" smooth="yes"/>
			<point x="229" y="668"/>
			<point x="40" y="573"/>
			<point x="40" y="321" type="curve" smooth="yes"/>
			<point x="40" y="114"/>
			<point x="168" y="-16"/>
		</contour>
		<contour>
			<point x="237" y="-101" type="line"/>
			<point x="259" y="-101" type="line"/>
			<point x="389" y="741" type="line"/>
			<point x="367" y="741" type="line"/>
		</contour>
		<contour>
			<point x="333" y="-101" type="line"/>
			<point x="355" y="-101" type="line"/>
			<point x="485" y="741" type="line"/>
			<point x="463" y="741" type="line"/>
		</contour>
	</outline>
</glyph>
<glyph name="cruzeiro" format="2">
	<advance width="624"/>
	<unicode hex="20A2"/>
	<note>
		uni20A2
	</note>
	<outline>
		<contour>
			<point x="355" y="-16" type="curve" smooth="yes"/>
			<point x="472" y="-16"/>
			<point x="553" y="35"/>
			<point x="601" y="135" type="curve"/>
			<point x="581" y="148" type="line"/>
			<point x="532" y="61"/>
			<point x="466" y="42"/>
			<point x="412" y="42" type="curve" smooth="yes"/>
			<point x="289" y="42"/>
			<point x="209" y="138"/>
			<point x="209" y="352" type="curve" smooth="yes"/>
			<point x="209" y="565"/>
			<point x="288" y="648"/>
			<point x="383" y="648" type="curve" smooth="yes"/>
			<point x="466" y="648"/>
			<point x="536" y="585"/>
			<point x="544" y="440" type="curve"/>
			<point x="564" y="440" type="line"/>
			<point x="564" y="609" type="line"/>
			<point x="510" y="655"/>
			<point x="445" y="668"/>
			<point x="387" y="668" type="curve" smooth="yes"/>
			<point x="229" y="668"/>
			<point x="40" y="573"/>
			<point x="40" y="321" type="curve" smooth="yes"/>
			<point x="40" y="114"/>
			<point x="167" y="-16"/>
		</contour>
		<contour>
			<point x="304" y="20" type="line"/>
			<point x="451" y="20" type="line"/>
			<point x="451" y="229" type="line"/>
			<point x="461" y="262"/>
			<point x="480" y="277"/>
			<point x="511" y="277" type="curve" smooth="yes"/>
			<point x="558" y="277"/>
			<point x="567" y="249"/>
			<point x="572" y="230" type="curve"/>
			<point x="591" y="230" type="line"/>
			<point x="591" y="364" type="line"/>
			<point x="579" y="375"/>
			<point x="563" y="380"/>
			<point x="546" y="380" type="curve" smooth="yes"/>
			<point x="464" y="380"/>
			<point x="438" y="259"/>
			<point x="435" y="186" type="curve"/>
			<point x="449" y="252" type="line"/>
			<point x="408" y="377" type="line"/>
			<point x="246" y="301" type="line"/>
			<point x="246" y="283" type="line"/>
			<point x="281" y="287"/>
			<point x="304" y="289"/>
			<point x="304" y="228" type="curve" smooth="yes"/>
		</contour>
	</outline>
</glyph>
<glyph name="franc" format="2">
	<advance width="656"/>
	<unicode hex="20A3"/>
	<note>
		uni20A3
	</note>
	<outline>
		<contour>
			<point x="120" y="0" type="line" name="_corner00"/>
			<point x="293" y="0" type="line" name="_corner01"/>
			<point x="293" y="652" type="line" name="🧨"/>
			<point x="120" y="652" type="line" name="_corner02"/>
		</contour>
		<contour>
			<point x="40" y="134" type="line"/>
			<point x="520" y="134" type="line"/>
			<point x="520" y="156" type="line"/>
			<point x="40" y="156" type="line"/>
		</contour>
		<contour>
			<point x="463" y="220" type="curve"/>
			<point x="483" y="220" type="line"/>
			<point x="483" y="457" type="line"/>
			<point x="463" y="457" type="line"/>
			<point x="461" y="374"/>
			<point x="440" y="349"/>
			<point x="374" y="349" type="curve" smooth="yes"/>
			<point x="198" y="349" type="line"/>
			<point x="198" y="329" type="line"/>
			<point x="374" y="329" type="line" smooth="yes"/>
			<point x="440" y="329"/>
			<point x="463" y="293"/>
		</contour>
		<contour>
			<point x="601" y="454" type="curve"/>
			<point x="621" y="454" type="line"/>
			<point x="590" y="652" type="line"/>
			<point x="212" y="652" type="line" name="🧨"/>
			<point x="212" y="632" type="line"/>
			<point x="434" y="632" type="line" smooth="yes"/>
			<point x="526" y="632"/>
			<point x="566" y="601"/>
		</contour>
	</outline>
</glyph>
<glyph name="peseta" format="2">
	<advance width="740"/>
	<unicode hex="20A7"/>
	<note>
		uni20A7
	</note>
	<outline>
		<contour>
			<point x="120" y="0" type="line" name="_corner01"/>
			<point x="293" y="0" type="line" name="_corner02"/>
			<point x="293" y="652" type="line"/>
			<point x="120" y="652" type="line" name="_corner00"/>
		</contour>
		<contour>
			<point x="31" y="440" type="line"/>
			<point x="725" y="440" type="line"/>
			<point x="725" y="462" type="line"/>
			<point x="31" y="462" type="line"/>
		</contour>
		<contour>
			<point x="261" y="253" type="line"/>
			<point x="386" y="253" type="line" smooth="yes"/>
			<point x="585" y="253"/>
			<point x="655" y="354"/>
			<point x="655" y="450" type="curve" smooth="yes"/>
			<point x="655" y="536"/>
			<point x="599" y="652"/>
			<point x="401" y="652" type="curve" smooth="yes"/>
			<point x="263" y="652" type="line" name="🔥"/>
			<point x="263" y="632" type="line" name="🧨"/>
			<point x="338" y="632" type="line" smooth="yes"/>
			<point x="423" y="632"/>
			<point x="479" y="589"/>
			<point x="479" y="448" type="curve" smooth="yes"/>
			<point x="479" y="321"/>
			<point x="433" y="273"/>
			<point x="338" y="273" type="curve" smooth="yes"/>
			<point x="261" y="273" type="line"/>
		</contour>
	</outline>
</glyph>
<glyph name="euro" format="2">
	<advance width="704"/>
	<unicode hex="20AC"/>
	<outline>
		<contour>
			<point x="421" y="-16" type="curve" smooth="yes"/>
			<point x="543" y="-16"/>
			<point x="623" y="42"/>
			<point x="671" y="155" type="curve"/>
			<point x="651" y="168" type="line"/>
			<point x="602" y="64"/>
			<point x="535" y="42"/>
			<point x="484" y="42" type="curve" smooth="yes"/>
			<point x="370" y="42"/>
			<point x="299" y="138"/>
			<point x="299" y="353" type="curve" smooth="yes"/>
			<point x="299" y="566"/>
			<point x="369" y="648"/>
			<point x="454" y="648" type="curve" smooth="yes"/>
			<point x="530" y="648"/>
			<point x="606" y="583"/>
			<point x="614" y="410" type="curve"/>
			<point x="634" y="410" type="line"/>
			<point x="634" y="609" type="line"/>
			<point x="580" y="655"/>
			<point x="515" y="668"/>
			<point x="457" y="668" type="curve" smooth="yes"/>
			<point x="299" y="668"/>
			<point x="110" y="573"/>
			<point x="110" y="321" type="curve" smooth="yes"/>
			<point x="110" y="114"/>
			<point x="238" y="-16"/>
		</contour>
		<contour>
			<point x="40" y="244" type="line"/>
			<point x="520" y="244" type="line"/>
			<point x="520" y="266" type="line"/>
			<point x="40" y="266" type="line"/>
		</contour>
		<contour>
			<point x="40" y="376" type="line"/>
			<point x="520" y="376" type="line"/>
			<point x="520" y="398" type="line"/>
			<point x="40" y="398" type="line"/>
		</contour>
	</outline>
</glyph>
<glyph name="tugrik" format="2">
	<advance width="677"/>
	<unicode hex="20AE"/>
	<note>
		uni20AE
	</note>
	<outline>
		<contour>
			<point x="252" y="0" type="line" name="_corner00"/>
			<point x="425" y="0" type="line" name="_corner01"/>
			<point x="425" y="640" type="line"/>
			<point x="252" y="640" type="line"/>
		</contour>
		<contour>
			<point x="188" y="170" type="line"/>
			<point x="513" y="335" type="line"/>
			<point x="503" y="355" type="line"/>
			<point x="177" y="190" type="line"/>
		</contour>
		<contour>
			<point x="174" y="277" type="line"/>
			<point x="499" y="442" type="line"/>
			<point x="489" y="462" type="line"/>
			<point x="163" y="297" type="line"/>
		</contour>
		<contour>
			<point x="20" y="455" type="line"/>
			<point x="39" y="455" type="line"/>
			<point x="76" y="599"/>
			<point x="89" y="630"/>
			<point x="132" y="630" type="curve" smooth="yes"/>
			<point x="545" y="630" type="line" smooth="yes"/>
			<point x="588" y="630"/>
			<point x="601" y="599"/>
			<point x="638" y="455" type="curve"/>
			<point x="657" y="455" type="line"/>
			<point x="646" y="672" type="line"/>
			<point x="602" y="672" type="line"/>
			<point x="582" y="655"/>
			<point x="575" y="652"/>
			<point x="555" y="652" type="curve" smooth="yes"/>
			<point x="122" y="652" type="line" smooth="yes"/>
			<point x="103" y="652"/>
			<point x="94" y="656"/>
			<point x="75" y="672" type="curve"/>
			<point x="31" y="672" type="line"/>
		</contour>
	</outline>
</glyph>
<glyph name="rupeeIndian" format="2">
	<advance width="624"/>
	<unicode hex="20B9"/>
	<note>
		uni20B9
	</note>
	<outline>
		<contour>
			<point x="318" y="0" type="curve"/>
			<point x="567" y="0" type="line"/>
			<point x="567" y="20" type="line"/>
			<point x="405" y="22"/>
			<point x="489" y="309"/>
			<point x="227" y="303" type="curve"/>
			<point x="227" y="310" type="line"/>
			<point x="426" y="322"/>
			<point x="489" y="396"/>
			<point x="489" y="480" type="curve" smooth="yes"/>
			<point x="489" y="572"/>
			<point x="410" y="652"/>
			<point x="220" y="652" type="curve" smooth="yes"/>
			<point x="47" y="652" type="line" name="🧨"/>
			<point x="47" y="632" type="line"/>
			<point x="151" y="632" type="line" smooth="yes"/>
			<point x="230" y="632"/>
			<point x="302" y="597"/>
			<point x="302" y="469" type="curve" smooth="yes"/>
			<point x="302" y="355"/>
			<point x="246" y="325"/>
			<point x="151" y="325" type="curve" smooth="yes"/>
			<point x="45" y="325" type="line"/>
			<point x="45" y="305" type="line"/>
			<point x="129" y="305" type="line" smooth="yes"/>
			<point x="194" y="305"/>
			<point x="231" y="292"/>
		</contour>
		<contour>
			<point x="47" y="462" type="line"/>
			<point x="577" y="462" type="line"/>
			<point x="577" y="484" type="line"/>
			<point x="47" y="484" type="line"/>
		</contour>
		<contour>
			<point x="47" y="630" type="line" name="🧨"/>
			<point x="577" y="630" type="line"/>
			<point x="577" y="652" type="line"/>
			<point x="47" y="652" type="line" name="🧨"/>
		</contour>
	</outline>
</glyph>
<glyph name="literSign" format="2">
	<advance width="562"/>
	<unicode hex="2113"/>
	<note>
		uni2113
	</note>
	<outline>
		<contour>
			<point x="365" y="53" type="curve" smooth="yes"/>
			<point x="298" y="53"/>
			<point x="256" y="118"/>
			<point x="256" y="340" type="curve" smooth="yes"/>
			<point x="256" y="559"/>
			<point x="297" y="680"/>
			<point x="349" y="680" type="curve" smooth="yes"/>
			<point x="375" y="680"/>
			<point x="390" y="649"/>
			<point x="390" y="577" type="curve" smooth="yes"/>
			<point x="390" y="371"/>
			<point x="267" y="238"/>
			<point x="20" y="185" type="curve"/>
			<point x="20" y="165" type="line"/>
			<point x="311" y="215"/>
			<point x="517" y="418"/>
			<point x="517" y="572" type="curve" smooth="yes"/>
			<point x="517" y="651"/>
			<point x="463" y="704"/>
			<point x="375" y="704" type="curve" smooth="yes"/>
			<point x="229" y="704"/>
			<point x="89" y="556"/>
			<point x="89" y="301" type="curve" smooth="yes"/>
			<point x="89" y="61"/>
			<point x="212" y="-12"/>
			<point x="318" y="-12" type="curve" smooth="yes"/>
			<point x="410" y="-12"/>
			<point x="463" y="42"/>
			<point x="502" y="123" type="curve"/>
			<point x="482" y="136" type="line"/>
			<point x="440" y="71"/>
			<point x="401" y="53"/>
		</contour>
	</outline>
</glyph>
<glyph name="emptyset" format="2">
	<advance width="678"/>
	<unicode hex="2205"/>
	<outline>
		<contour>
			<point x="107" y="55" type="line"/>
			<point x="591" y="582" type="line"/>
			<point x="569" y="603" type="line"/>
			<point x="85" y="75" type="line"/>
		</contour>
		<contour>
			<point x="339" y="75" type="curve" smooth="yes"/>
			<point x="484" y="75"/>
			<point x="593" y="189"/>
			<point x="593" y="329" type="curve" smooth="yes"/>
			<point x="593" y="469"/>
			<point x="484" y="583"/>
			<point x="339" y="583" type="curve" smooth="yes"/>
			<point x="194" y="583"/>
			<point x="85" y="469"/>
			<point x="85" y="329" type="curve" smooth="yes"/>
			<point x="85" y="189"/>
			<point x="194" y="75"/>
		</contour>
		<contour>
			<point x="339" y="107" type="curve" smooth="yes"/>
			<point x="213" y="107"/>
			<point x="120" y="204"/>
			<point x="120" y="329" type="curve" smooth="yes"/>
			<point x="120" y="454"/>
			<point x="213" y="551"/>
			<point x="339" y="551" type="curve" smooth="yes"/>
			<point x="465" y="551"/>
			<point x="558" y="454"/>
			<point x="558" y="329" type="curve" smooth="yes"/>
			<point x="558" y="204"/>
			<point x="465" y="107"/>
		</contour>
	</outline>
</glyph>
<glyph name="product" format="2">
	<advance width="810"/>
	<unicode hex="220F"/>
	<outline>
		<contour>
			<point x="120" y="-120" type="line" name="_corner02"/>
			<point x="295" y="-120" type="line" name="_corner00"/>
			<point x="295" y="692" type="line" name="🧨"/>
			<point x="120" y="692" type="line" name="_corner01"/>
		</contour>
		<contour>
			<point x="515" y="-120" type="line" name="_corner05"/>
			<point x="690" y="-120" type="line" name="_corner03"/>
			<point x="690" y="692" type="line" name="_corner04"/>
			<point x="515" y="692" type="line" name="🧨"/>
		</contour>
		<contour>
			<point x="280" y="692" type="line" name="🧨"/>
			<point x="280" y="670" type="line"/>
			<point x="530" y="670" type="line"/>
			<point x="530" y="692" type="line" name="🧨"/>
		</contour>
	</outline>
</glyph>
<glyph name="approxequal" format="2">
	<advance width="600"/>
	<unicode hex="2248"/>
	<outline>
		<contour>
			<point x="137" y="292" type="line"/>
			<point x="153" y="351"/>
			<point x="177" y="373"/>
			<point x="212" y="373" type="curve" smooth="yes"/>
			<point x="277" y="373"/>
			<point x="314" y="296"/>
			<point x="389" y="296" type="curve" smooth="yes"/>
			<point x="440" y="296"/>
			<point x="477" y="330"/>
			<point x="500" y="401" type="curve"/>
			<point x="463" y="411" type="line"/>
			<point x="447" y="360"/>
			<point x="423" y="336"/>
			<point x="388" y="336" type="curve" smooth="yes"/>
			<point x="324" y="336"/>
			<point x="299" y="413"/>
			<point x="214" y="413" type="curve" smooth="yes"/>
			<point x="158" y="413"/>
			<point x="120" y="380"/>
			<point x="99" y="302" type="curve"/>
		</contour>
		<contour>
			<point x="137" y="132" type="line"/>
			<point x="153" y="191"/>
			<point x="177" y="213"/>
			<point x="212" y="213" type="curve" smooth="yes"/>
			<point x="277" y="213"/>
			<point x="314" y="136"/>
			<point x="389" y="136" type="curve" smooth="yes"/>
			<point x="440" y="136"/>
			<point x="477" y="170"/>
			<point x="500" y="241" type="curve"/>
			<point x="463" y="251" type="line"/>
			<point x="447" y="200"/>
			<point x="423" y="176"/>
			<point x="388" y="176" type="curve" smooth="yes"/>
			<point x="324" y="176"/>
			<point x="299" y="253"/>
			<point x="214" y="253" type="curve" smooth="yes"/>
			<point x="158" y="253"/>
			<point x="120" y="220"/>
			<point x="99" y="142" type="curve"/>
		</contour>
	</outline>
</glyph>
<glyph name="blackCircle" format="2">
	<advance width="800"/>
	<unicode hex="25CF"/>
	<note>
		uni25CF
	</note>
	<outline>
		<contour>
			<point x="755" y="346" type="curve" smooth="yes"/>
			<point x="755" y="548"/>
			<point x="600" y="704"/>
			<point x="400" y="704" type="curve" smooth="yes"/>
			<point x="200" y="704"/>
			<point x="45" y="546"/>
			<point x="45" y="346" type="curve" smooth="yes"/>
			<point x="45" y="146"/>
			<point x="200" y="-12"/>
			<point x="400" y="-12" type="curve" smooth="yes"/>
			<point x="600" y="-12"/>
			<point x="755" y="146"/>
		</contour>
	</outline>
</glyph>
<glyph name="fi" format="2">
	<advance width="696"/>
	<unicode hex="FB01"/>
	<anchor x="343.5" y="0" name="caret_1"/>
	<outline>
		<contour>
			<point x="78" y="0" type="line" name="_corner00"/>
			<point x="245" y="0" type="line" name="_corner01"/>
			<point x="245" y="490" type="line" name="🧨"/>
			<point x="217" y="509"/>
			<point x="192" y="541"/>
			<point x="192" y="604" type="curve" smooth="yes"/>
			<point x="192" y="694"/>
			<point x="245" y="729"/>
			<point x="325" y="729" type="curve" smooth="yes"/>
			<point x="444" y="729"/>
			<point x="509" y="651"/>
			<point x="509" y="557" type="curve"/>
			<point x="527" y="557" type="line"/>
			<point x="527" y="702" type="line"/>
			<point x="471" y="728"/>
			<point x="411" y="746"/>
			<point x="330" y="746" type="curve" smooth="yes"/>
			<point x="167" y="746"/>
			<point x="78" y="674"/>
			<point x="78" y="537" type="curve" smooth="yes"/>
		</contour>
		<contour>
			<point x="447" y="0" type="line" name="_corner02"/>
			<point x="614" y="0" type="line" name="_corner03"/>
			<point x="614" y="490" type="line"/>
			<point x="79" y="490" type="line" name="🧨"/>
			<point x="8" y="482" type="line"/>
			<point x="8" y="468" type="line"/>
			<point x="377" y="468" type="line" smooth="yes"/>
			<point x="435" y="468"/>
			<point x="447" y="465"/>
			<point x="447" y="415" type="curve" smooth="yes"/>
		</contour>
	</outline>
</glyph>
<glyph name="fl" format="2">
	<advance width="696"/>
	<unicode hex="FB02"/>
	<anchor x="348" y="0" name="caret_1"/>
	<outline>
		<contour>
			<point x="78" y="0" type="line" name="_corner01"/>
			<point x="245" y="0" type="line" name="_corner00"/>
			<point x="245" y="490" type="line" name="🧨"/>
			<point x="217" y="509"/>
			<point x="192" y="540"/>
			<point x="192" y="607" type="curve" smooth="yes"/>
			<point x="192" y="693"/>
			<point x="234" y="729"/>
			<point x="295" y="729" type="curve" smooth="yes"/>
			<point x="376" y="729"/>
			<point x="431" y="672"/>
			<point x="447" y="627" type="curve"/>
			<point x="485" y="652" type="line"/>
			<point x="445" y="703"/>
			<point x="391" y="746"/>
			<point x="289" y="746" type="curve" smooth="yes"/>
			<point x="157" y="746"/>
			<point x="78" y="674"/>
			<point x="78" y="537" type="curve" smooth="yes"/>
		</contour>
		<contour>
			<point x="8" y="468" type="line"/>
			<point x="512" y="468" type="line"/>
			<point x="512" y="490" type="line"/>
			<point x="79" y="490" type="line" name="🧨"/>
			<point x="8" y="482" type="line"/>
		</contour>
		<contour>
			<point x="447" y="0" type="line" name="_corner02"/>
			<point x="614" y="0" type="line" name="_corner03"/>
			<point x="614" y="730" type="line"/>
			<point x="598" y="730" type="line"/>
			<point x="447" y="649" type="line"/>
		</contour>
	</outline>
</glyph>
<glyph name="_corner.serifright" format="2">
	<advance width="600"/>
	<outline>
		<contour>
			<point x="0" y="0" type="move"/>
			<point x="70" y="0" type="line"/>
			<point x="70" y="18" type="line"/>
			<point x="55" y="18"/>
			<point x="0" y="25"/>
			<point x="0" y="80" type="curve"/>
		</contour>
	</outline>
</glyph>
<glyph name="_corner.uppercase" format="2">
	<advance width="600"/>
	<outline>
		<contour>
			<point x="-10" y="0" type="move"/>
			<point x="105" y="0" type="line"/>
			<point x="105" y="20" type="line"/>
			<point x="47" y="20"/>
			<point x="0" y="26"/>
			<point x="0" y="90" type="curve"/>
		</contour>
	</outline>
</glyph>
<glyph name="_tail.Q" format="2">
	<advance width="800"/>
	<anchor x="356" y="0" name="_tail"/>
	<outline>
		<contour>
			<point x="367" y="-3" type="curve"/>
			<point x="344" y="-8" type="line"/>
			<point x="380" y="-125"/>
			<point x="485" y="-201"/>
			<point x="626" y="-198" type="curve"/>
			<point x="667" y="-60" type="line"/>
			<point x="650" y="-52" type="line"/>
			<point x="590" y="-143"/>
			<point x="426" y="-154"/>
		</contour>
	</outline>
</glyph>
<glyph name="caroncomb.alt" format="2">
	<advance width="220"/>
	<anchor x="-18" y="730" name="_topright"/>
	<outline>
		<contour>
			<point x="45" y="512" type="curve"/>
			<point x="70" y="504" type="line"/>
			<point x="131" y="567"/>
			<point x="175" y="680"/>
			<point x="175" y="730" type="curve"/>
			<point x="59" y="730" type="line"/>
			<point x="59" y="658"/>
			<point x="57" y="584"/>
		</contour>
	</outline>
</glyph>
<glyph name="caroncomb.case" format="2">
	<advance width="368"/>
	<anchor x="184" y="692" name="_top"/>
	<anchor x="184" y="860" name="top"/>
	<outline>
		<contour>
			<point x="56" y="887" type="line" name="❌"/>
			<point x="45" y="873" type="line"/>
			<point x="179" y="731" type="line"/>
			<point x="197" y="731" type="line"/>
			<point x="323" y="873" type="line"/>
			<point x="312" y="887" type="line" name="❌"/>
			<point x="184" y="852" type="line"/>
		</contour>
	</outline>
</glyph>
<glyph name="circumflexcomb.case" format="2">
	<advance width="428"/>
	<anchor x="214" y="692" name="_top"/>
	<anchor x="214" y="875" name="top"/>
	<anchor x="217" y="815" name="top_tilde"/>
	<anchor x="388" y="801" name="top_viet"/>
	<anchor x="349" y="801" name="top_viet2"/>
	<outline>
		<contour>
			<point x="86" y="729" type="line" name="❌"/>
			<point x="214" y="764" type="line"/>
			<point x="342" y="729" type="line" name="❌"/>
			<point x="353" y="743" type="line"/>
			<point x="227" y="885" type="line"/>
			<point x="209" y="885" type="line"/>
			<point x="75" y="743" type="line"/>
		</contour>
	</outline>
</glyph>
<glyph name="dieresiscomb.case" format="2">
	<advance width="439"/>
	<anchor x="220" y="692" name="_top"/>
	<anchor x="220" y="877" name="top"/>
	<outline>
		<contour>
			<point x="114" y="737" type="curve" smooth="yes"/>
			<point x="154" y="737"/>
			<point x="185" y="769"/>
			<point x="185" y="808" type="curve" smooth="yes"/>
			<point x="185" y="845"/>
			<point x="154" y="877"/>
			<point x="114" y="877" type="curve" smooth="yes"/>
			<point x="77" y="877"/>
			<point x="45" y="845"/>
			<point x="45" y="808" type="curve" smooth="yes"/>
			<point x="45" y="769"/>
			<point x="77" y="737"/>
		</contour>
		<contour>
			<point x="322" y="737" type="curve" smooth="yes"/>
			<point x="362" y="737"/>
			<point x="394" y="769"/>
			<point x="394" y="808" type="curve" smooth="yes"/>
			<point x="394" y="845"/>
			<point x="362" y="877"/>
			<point x="322" y="877" type="curve" smooth="yes"/>
			<point x="285" y="877"/>
			<point x="254" y="845"/>
			<point x="254" y="808" type="curve" smooth="yes"/>
			<point x="254" y="769"/>
			<point x="285" y="737"/>
		</contour>
	</outline>
</glyph>
<glyph name="dotaccentcomb.case" format="2">
	<advance width="252"/>
	<anchor x="125" y="692" name="_top"/>
	<anchor x="125" y="931" name="top"/>
	<outline>
		<contour>
			<point x="126" y="739" type="curve" smooth="yes"/>
			<point x="171" y="739"/>
			<point x="212" y="773"/>
			<point x="212" y="823" type="curve" smooth="yes"/>
			<point x="212" y="873"/>
			<point x="171" y="907"/>
			<point x="126" y="907" type="curve" smooth="yes"/>
			<point x="81" y="907"/>
			<point x="40" y="873"/>
			<point x="40" y="823" type="curve" smooth="yes"/>
			<point x="40" y="773"/>
			<point x="81" y="739"/>
		</contour>
	</outline>
</glyph>
<glyph name="dotaccentcomb.curve" format="2">
	<advance width="338"/>
	<anchor x="169" y="490" name="_top"/>
	<anchor x="169" y="730" name="top"/>
	<outline>
		<contour>
			<point x="170" y="540" type="curve" smooth="yes"/>
			<point x="220" y="540"/>
			<point x="266" y="578"/>
			<point x="266" y="635" type="curve" smooth="yes"/>
			<point x="266" y="691"/>
			<point x="220" y="729"/>
			<point x="170" y="729" type="curve" smooth="yes"/>
			<point x="118" y="729"/>
			<point x="72" y="691"/>
			<point x="72" y="635" type="curve" smooth="yes"/>
			<point x="72" y="578"/>
			<point x="118" y="540"/>
		</contour>
	</outline>
</glyph>
<glyph name="hookabovecomb.viet" format="2">
	<advance width="331"/>
	<anchor x="168" y="490" name="_top"/>
	<anchor x="168" y="739" name="top"/>
	<outline>
		<contour>
			<point x="123" y="547" type="line"/>
			<point x="223" y="571"/>
			<point x="286" y="607"/>
			<point x="286" y="658" type="curve" smooth="yes"/>
			<point x="286" y="700"/>
			<point x="245" y="732"/>
			<point x="182" y="732" type="curve" smooth="yes"/>
			<point x="120" y="732"/>
			<point x="75" y="702"/>
			<point x="45" y="652" type="curve"/>
			<point x="62" y="642" type="line"/>
			<point x="86" y="674"/>
			<point x="109" y="680"/>
			<point x="128" y="680" type="curve" smooth="yes"/>
			<point x="161" y="680"/>
			<point x="174" y="664"/>
			<point x="174" y="635" type="curve" smooth="yes"/>
			<point x="174" y="598"/>
			<point x="153" y="579"/>
			<point x="117" y="561" type="curve"/>
		</contour>
	</outline>
</glyph>
<glyph name="one.lf" format="2">
	<advance width="515"/>
	<outline>
		<contour>
			<point x="183" y="0" type="line" name="_corner01"/>
			<point x="355" y="0" type="line" name="_corner00"/>
			<point x="355" y="686" type="line"/>
			<point x="339" y="686" type="line"/>
			<point x="58" y="571" type="line"/>
			<point x="63" y="553" type="line"/>
			<point x="87" y="560"/>
			<point x="107" y="562"/>
			<point x="128" y="562" type="curve" smooth="yes"/>
			<point x="164" y="562"/>
			<point x="183" y="546"/>
			<point x="183" y="505" type="curve" smooth="yes"/>
		</contour>
	</outline>
</glyph>
<glyph name="parenleft.case" format="2">
	<advance width="403"/>
	<outline>
		<contour>
			<point x="371" y="-140" type="curve"/>
			<point x="378" y="-130" type="line"/>
			<point x="276" y="-43"/>
			<point x="213" y="109"/>
			<point x="213" y="330" type="curve" smooth="yes"/>
			<point x="213" y="553"/>
			<point x="276" y="703"/>
			<point x="378" y="790" type="curve"/>
			<point x="371" y="800" type="line"/>
			<point x="165" y="720"/>
			<point x="35" y="569"/>
			<point x="35" y="330" type="curve" smooth="yes"/>
			<point x="35" y="91"/>
			<point x="165" y="-60"/>
		</contour>
	</outline>
</glyph>
<glyph name="periodcentered.loclCAT" format="2">
	<advance width="109"/>
	<outline>
		<contour>
			<point x="52" y="269" type="curve" smooth="yes"/>
			<point x="98" y="269"/>
			<point x="139" y="308"/>
			<point x="139" y="358" type="curve" smooth="yes"/>
			<point x="139" y="407"/>
			<point x="98" y="445"/>
			<point x="52" y="445" type="curve" smooth="yes"/>
			<point x="5" y="445"/>
			<point x="-37" y="407"/>
			<point x="-37" y="358" type="curve" smooth="yes"/>
			<point x="-37" y="308"/>
			<point x="5" y="269"/>
		</contour>
	</outline>
</glyph>
<glyph name="ringcomb.case" format="2">
	<advance width="275"/>
	<anchor x="138" y="692" name="_top"/>
	<anchor x="138" y="900" name="top"/>
	<outline>
		<contour>
			<point x="137" y="723" type="curve" smooth="yes"/>
			<point x="191" y="723"/>
			<point x="230" y="762"/>
			<point x="230" y="812" type="curve" smooth="yes"/>
			<point x="230" y="861"/>
			<point x="191" y="900"/>
			<point x="137" y="900" type="curve" smooth="yes"/>
			<point x="84" y="900"/>
			<point x="45" y="861"/>
			<point x="45" y="812" type="curve" smooth="yes"/>
			<point x="45" y="762"/>
			<point x="84" y="723"/>
		</contour>
		<contour>
			<point x="137" y="749" type="curve" smooth="yes"/>
			<point x="99" y="749"/>
			<point x="74" y="777"/>
			<point x="74" y="812" type="curve" smooth="yes"/>
			<point x="74" y="846"/>
			<point x="99" y="875"/>
			<point x="137" y="875" type="curve" smooth="yes"/>
			<point x="177" y="875"/>
			<point x="200" y="846"/>
			<point x="200" y="812" type="curve" smooth="yes"/>
			<point x="200" y="778"/>
			<point x="177" y="749"/>
		</contour>
	</outline>
</glyph>
<glyph name="strokelongcomb.case" format="2">
	<advance width="805"/>
	<anchor x="403" y="313" name="_center"/>
	<outline>
		<contour>
			<point x="20" y="454" type="line"/>
			<point x="20" y="431" type="line"/>
			<point x="785" y="431" type="line"/>
			<point x="785" y="454" type="line"/>
		</contour>
	</outline>
</glyph>
<glyph name="strokeshortcomb.case" format="2">
	<advance width="459"/>
	<anchor x="230" y="357" name="_center"/>
	<outline>
		<contour>
			<point x="45" y="346" type="line"/>
			<point x="414" y="346" type="line"/>
			<point x="414" y="366" type="line"/>
			<point x="45" y="366" type="line"/>
		</contour>
	</outline>
</glyph>
<glyph name="tildecomb.viet" format="2">
	<advance width="399"/>
	<anchor x="198" y="634" name="_top"/>
	<anchor x="198" y="862" name="top"/>
	<outline>
		<contour>
			<point x="63" y="719" type="line"/>
			<point x="84" y="748"/>
			<point x="101" y="757"/>
			<point x="121" y="757" type="curve" smooth="yes"/>
			<point x="165" y="757"/>
			<point x="197" y="717"/>
			<point x="246" y="717" type="curve" smooth="yes"/>
			<point x="296" y="717"/>
			<point x="330" y="758"/>
			<point x="354" y="837" type="curve"/>
			<point x="336" y="844" type="line"/>
			<point x="317" y="817"/>
			<point x="301" y="809"/>
			<point x="280" y="809" type="curve" smooth="yes"/>
			<point x="232" y="809"/>
			<point x="208" y="849" name="❌"/>
			<point x="157" y="849" type="curve" smooth="yes" name="❌"/>
			<point x="105" y="849" name="❌"/>
			<point x="73" y="806"/>
			<point x="45" y="727" type="curve"/>
		</contour>
	</outline>
</glyph>
<glyph name="two.lf" format="2">
	<advance width="581"/>
	<outline>
		<contour>
			<point x="52" y="0" type="line"/>
			<point x="506" y="0" type="line"/>
			<point x="543" y="233" type="line"/>
			<point x="525" y="233" type="line"/>
			<point x="498" y="134"/>
			<point x="462" y="117"/>
			<point x="370" y="117" type="curve" smooth="yes"/>
			<point x="97" y="117" type="line"/>
			<point x="46" y="70" type="line"/>
			<point x="408" y="269"/>
			<point x="520" y="363"/>
			<point x="520" y="500" type="curve" smooth="yes"/>
			<point x="520" y="625"/>
			<point x="428" y="698" name="❌"/>
			<point x="293" y="698" type="curve" smooth="yes" name="❌"/>
			<point x="159" y="698" name="❌"/>
			<point x="57" y="627"/>
			<point x="35" y="473" type="curve"/>
			<point x="53" y="471" type="line"/>
			<point x="68" y="559"/>
			<point x="127" y="617"/>
			<point x="212" y="617" type="curve" smooth="yes"/>
			<point x="272" y="617"/>
			<point x="346" y="588"/>
			<point x="346" y="463" type="curve" smooth="yes"/>
			<point x="346" y="332"/>
			<point x="267" y="237"/>
			<point x="28" y="77" type="curve"/>
		</contour>
	</outline>
</glyph>
